<svg xmlns="http://www.w3.org/2000/svg" viewBox="0 0 725.59 261.67"><defs><style>.cls-1{fill:#f8e5b4;}.cls-1,.cls-2,.cls-3,.cls-4{fill-rule:evenodd;}.cls-2{fill:#fff;}.cls-3{fill:#1d1d1b;}.cls-4{fill:#e8d19c;}</style></defs><title>Element 18</title><g id="Ebene_2" data-name="Ebene 2"><g id="Objects"><path class="cls-1" d="M372.76,46.86h0s0,0,0,0Z"/><path class="cls-1" d="M371.28,58.35c.22-.1.47-.15.7-.23.19-.25.54-.17.75-.38h0c.19-.23.53-.17.75-.38h0c.19-.23.54-.16.75-.37h0c.2-.24.55-.17.75-.38h0c.19-.24.54-.17.75-.38h0c.19-.24.53-.17.75-.36h0c.18-.25.52-.17.73-.36h0c.18-.26.53-.18.74-.37h0c.18-.26.52-.18.73-.37h0c.18-.26.53-.18.74-.37h0c.17-.26.52-.18.73-.36h0c.17-.26.53-.17.73-.37l.06-.1.12,0a.94.94,0,0,0,.57-.28l.09-.11.13,0a1.05,1.05,0,0,0,.53-.28l.09-.11h.14c1.11-.33,2.36-.4,3.08-1.53h0l0,0,0,0c.21,0,.31-.17.47-.26l.09-.11.14,0c.28-.13.63-.1.84-.39h0l0,0s0,0,0,0c.24-.13.58-.1.75-.38h0l0,0s0,0,0,0c.25-.13.58-.1.76-.38h0l0,0,0,0c.25-.13.58-.1.75-.37h0l0,0s0,0,0,0c.25-.13.58-.11.76-.39h0l0,0s0,0,0,0c.25-.12.57-.1.75-.37h0l.05,0s0,0,0,0c.26-.13.62-.09.79-.4h0c.6-.34,1.18-.7,1.79-1,3.08-1.56,6.17-3.1,9.25-4.65,2.33-1.13,4.67-2.27,7-3.38.52-.25.81-.54.51-1.13-.28-.14-.16-.55-.47-.67l0,0a1.07,1.07,0,0,0-.35-.44h0a7.48,7.48,0,0,0-.82-1.12l0,0a1.66,1.66,0,0,0-.35-.44h0a1.12,1.12,0,0,1-.29-.36.18.18,0,0,1-.14-.23.68.68,0,0,0-.38-.52l0,0c-.08-.17-.24-.28-.33-.44h0c-.44-.53-.9-1-1.3-1.59q-4.35-5.89-8.69-11.79c-.39-.54-.82-1-1.35-1.7-1.81,2.39-3.8,4.39-5.39,6.71-.54.6-1.09,1.19-1.62,1.8-1.92,2.2-3.64,4.57-5.68,6.68h0c-.36.06-.25.5-.52.64l0,0a2.5,2.5,0,0,1-.34.39h0a1.82,1.82,0,0,0-.36.42l0,0a.69.69,0,0,0-.35.4h0l0,0s0,0,0,0a.48.48,0,0,0-.36.42h0l-.05,0v0c-.32.09-.23.49-.48.63l0,0a2.66,2.66,0,0,1-.34.4h0a1.5,1.5,0,0,0-.36.43l0,0a.71.71,0,0,0-.37.44l0,0c-.42.24-.5.76-.86,1.06l0,0a4.23,4.23,0,0,1-.34.4h0a1.24,1.24,0,0,0-.36.43l0,0a.65.65,0,0,0-.38.44l.05,0c-.43.24-.51.75-.87,1v0a4.47,4.47,0,0,1-.34.4h0a1.6,1.6,0,0,0-.35.42h0l0,0h0c-.7.22-.7,1-1.18,1.44v0c-.1.15-.24.26-.35.4h0a1.07,1.07,0,0,0-.36.43l0,0a.58.58,0,0,0-.37.42s0,0,0,0l0,0s0,0,0,0c-.29.1-.2.51-.48.62l0,0a1.1,1.1,0,0,1-.33.38h0c-.1.15-.24.26-.34.41h0a1,1,0,0,0-.34.4h0l0,0a.53.53,0,0,0-.33.39l0,0,0,.05,0,0c-.29.1-.21.5-.48.62l0,0a1.16,1.16,0,0,1-.32.38h0c-.11.14-.24.27-.35.41a46.9,46.9,0,0,1-3.65,4.55c-1.55,1.92-1.57,1.9-.25,3.89C368.85,59.46,368.85,59.46,371.28,58.35Z"/><path class="cls-1" d="M234.93,135.84a4.09,4.09,0,0,0-1.86-1.48c-.88-.79-1.75-1.61-2.67-2.36-8.85-7.26-19.06-9.56-30.22-8a49.51,49.51,0,0,0-23,9.67c-.7.52-1.42,1-2.13,1.54-2.31,1.07-3.9,3-5.55,4.8a.68.68,0,0,0-.17.47h0a24.6,24.6,0,0,0-4.53,5.23,53.52,53.52,0,0,0-9,21c-1.37,9.11-.45,17.85,4.11,26a7.92,7.92,0,0,0,2.37,3.09l0,0,0,0h0a2.39,2.39,0,0,0,.31.42v0c.25.15.17.53.46.65,0,0,0,0,0,0l0,.05,0,0a.66.66,0,0,0,.35.43l0,0a1.83,1.83,0,0,0,.35.43h0c.33.31.41.85.88,1.05l-.05,0c0,.26.2.37.42.45.32.29.66.57,1,.87a35.55,35.55,0,0,0,24.61,10.55,45.48,45.48,0,0,0,21.31-4.48A47.38,47.38,0,0,0,226,196.38c.87-.34,1.28-1.24,2.05-1.71a25.58,25.58,0,0,0,3-2.78,52.67,52.67,0,0,0,12-27.44,16.17,16.17,0,0,1,.18-3.47,4.8,4.8,0,0,0,.11-.57c-.22-8.86-2.37-17.08-8-24.13C235.16,136.14,235.05,136,234.93,135.84Z"/><path class="cls-1" d="M370.81,180.63c0-1.36.3-1.61-1.56-1.83a61,61,0,0,1-24.12-7.89,42.11,42.11,0,0,1-9-6.67.71.71,0,0,0-.43-.42l0,0a.56.56,0,0,0-.4-.36h0l0,0s0,0,0,0a.47.47,0,0,0-.41-.4l0,0,0,0h0c-.6-.71-1-1.53-1.68-2.2a48,48,0,0,1-7.57-10.27,4.46,4.46,0,0,0-2.52-1.85c-8.27-3.3-16.58-6.53-24.86-9.83l-.71-.22-.43-.16-.6-.27a2.67,2.67,0,0,0-.4-.13,7.25,7.25,0,0,1-.78-.28l-.4-.14a4.61,4.61,0,0,1-.8-.32,7.54,7.54,0,0,0-1.06-.42l-.63-.25-.21-.09-.21-.09a6,6,0,0,0-.84-.3l-.6-.22-.38-.17c-.19-.09-.37-.18-.57-.26a5.89,5.89,0,0,0-.59-.21c-.2-.07-.39-.16-.59-.25a8.54,8.54,0,0,0-1-.42c-.2-.07-.41-.16-.61-.25l-.06,0q6.56-7.11,13.26-14.07c6.16-6.42,12.16-13,18.43-19.3A12.92,12.92,0,0,0,321.63,97l0-.07,3.13-3c.58-1.06,1.71-1.66,2.26-2.73-.18-.52-.63-.79-1-1.13-4-3.81-8-7.59-12-11.42-2.34-2.26-4.8-4.4-7-6.81-.35-.56-1-.82-1.39-1.31l-.05,0a.68.68,0,0,1-.34-.33l0,0a.73.73,0,0,1-.34-.33l0,0a.9.9,0,0,1-.36-.34l0,0a1.2,1.2,0,0,1-.36-.35l0,0a2,2,0,0,1-.37-.35h0a4.44,4.44,0,0,1-.38-.37h0c-.14-.12-.26-.25-.39-.37h0a4.72,4.72,0,0,0-.41-.37l0,0a1.48,1.48,0,0,0-.4-.39h0a1.39,1.39,0,0,0-.41-.39l0,0a1,1,0,0,0-.42-.4l0,0a1,1,0,0,0-.4-.4h0l-3.22-2.76c-1.45,1.68-2.4,3.53-3.81,5a.33.33,0,0,0-.33.14c-.12.15-.23.31-.36.45a1.85,1.85,0,0,1-.14.14c-.09.1-.19.19-.27.29l-.13.17a1,1,0,0,0-.14.41c0,.1.11.12.18.16a.7.7,0,0,0-.25,0l-.19.14q-.18.16-.33.33a3,3,0,0,0-.25.37,4.15,4.15,0,0,1-.32.53s-.09.1-.13.16-.18.2-.27.32-.17.23-.25.35c-.22.32-.49.61-.74.92-7.53,10.47-14.89,21.07-22.49,31.49a5.88,5.88,0,0,1-.06-1.33c-.37-5.8-.77-11.59-1-17.4-.18-4-.65-8-.56-12-.47-1.47-.24-3-.37-4.48-.17-2-.29-4.06-.45-6.24-3.74,1.11-7.28,2.18-10.83,3.2-4.15,1.2-8.24,2.61-12.45,3.6a.2.2,0,0,1-.27.07c-.37.26-.89,0-1.23.37h0c-.32.31-.83,0-1.15.35a.14.14,0,0,1-.23,0,4.76,4.76,0,0,0-.9.3.23.23,0,0,1-.3.07c-.36.27-.88,0-1.21.36h0c-.33.32-.83,0-1.16.34a.16.16,0,0,1-.24.07,5.73,5.73,0,0,0-.89.28.25.25,0,0,1-.31.07c-.35.29-.87,0-1.2.37h0c-.32.32-.82,0-1.15.34a.17.17,0,0,1-.26.06,8.87,8.87,0,0,0-.87.29.26.26,0,0,1-.32.07c-.35.3-.86,0-1.2.36h0c-.31.34-.81.06-1.13.34-1.05.71-2.8.33-3.35,1.43s-.17,2.42,0,3.67l-.24.22c-.66,1.86-.28,3.7,0,5.56.21,1.29.91,1.65,2.13,1.32,2.29-.63,4.62-1.17,6.92-1.75s2.47-.43,2.67,2c.29,3.41.16,6.88,1.25,10.2a2.13,2.13,0,0,1,.07,1.32c.4,1-.08,2.17.31,3.21a1.55,1.55,0,0,1,.06,1c.44,1.13-.1,2.35.32,3.49a22,22,0,0,1,.4,3.35c.41,5.12.86,10.23,1.25,15.35a5.09,5.09,0,0,0,1.5,3.47,24.05,24.05,0,0,1,4.49,5.74,3.81,3.81,0,0,0,.84,2.05,46.65,46.65,0,0,1,6.37,18.49c.39,3.33.94,6.69.29,10.07a55.62,55.62,0,0,1-6.38,22.78c-1.39,2.64-2.42,5.17-1.22,8.13a6.37,6.37,0,0,1,.13.74c.45,5,.91,10,1.31,15,.12,1.4.23,1.34,1.47,1.18,2.67-.35,5.35-.69,8-1.11,3.41-.53,6.85-.8,10.23-1.51,1.5.14,2.94-.53,4.45-.37.92-.24,1.46-.61,1.39-1.78-.16-2.12-.09-4.26-.1-6.39q0-21.74-.1-43.47c.76-.16,1.29.38,1.88.67q27.19,13.58,54.35,27.17a47.17,47.17,0,0,1,5,2.59,3.28,3.28,0,0,0,1.75,1.36q13.5,6.75,27,13.5a3,3,0,0,0,2.31.56.46.46,0,0,0,.07-.07c1.81,1,3.61,2,5.43,2.93,1.21-.06.7-1,.7-1.56Q370.84,192.77,370.81,180.63Z"/><path class="cls-1" d="M709.27,100.77a.23.23,0,0,1-.32,0c-.38-.26-.87-.08-1.26-.3a.15.15,0,0,1-.24,0c-.46-.4-1.11,0-1.58-.36a.25.25,0,0,1-.31,0,4.53,4.53,0,0,1-.74,0L687.2,96c-2.93-.65-5.86-1.32-8.8-2-1.67-.36-1.67-.35-2.11,1.36-.23.92-.47,1.82-.71,2.73a1.44,1.44,0,0,1-.17.45,1.79,1.79,0,0,1-.2,1.06,2.27,2.27,0,0,1-.18.47l.06.62c-.54,1.35-.55,2.85-1.2,4.18a4.48,4.48,0,0,0-1,2.39c-3.06,12.8-6.2,25.58-9.24,38.39q-1,4.17-2.06,8.31a13.59,13.59,0,0,0-.22-1.54q-4.83-22.65-9.59-45.33a4.16,4.16,0,0,0-.91-2.24l-.09-.6c-.1-.29-.14-.6-.24-.89s-.08-.48-.11-.72c-.29-.34-.08-.81-.29-1.17,0-.23-.06-.46-.1-.69-.27-.36-.07-.83-.29-1.19a6,6,0,0,1-.48-2.5c-.21-.4,0-.89-.3-1.29a.27.27,0,0,1,0-.33c-.29-.34-.08-.81-.29-1.17,0-.23-.07-.46-.1-.69-.27-.35-.07-.83-.29-1.2,0-.22-.07-.43-.1-.65-.24-.38,0-.86-.29-1.24l-.09-.6c-.21-.41,0-.89-.3-1.29a.26.26,0,0,1-.05-.32c-.38-.47,0-1.11-.35-1.57l-.09-.08,0-.11c-.32-.73-1.11-.11-1.53-.54a.26.26,0,0,1-.32,0c-.48-.34-1.1,0-1.57-.33a.25.25,0,0,1-.32-.05c-.47-.34-1.09,0-1.56-.33a.27.27,0,0,1-.33,0c-.46-.36-1.08,0-1.55-.34a.26.26,0,0,1-.33,0c-.47-.33-1.09,0-1.55-.33a.29.29,0,0,1-.34,0c-.47-.35-1.09,0-1.55-.34a.26.26,0,0,1-.33,0c-4.23-.58-8.37-1.61-12.55-2.42q-9.42-1.82-18.81-3.8c-1-.2-1.23.09-1.28,1a57.66,57.66,0,0,0-.2,6c-.1.39-.2.79-.31,1.18a2.31,2.31,0,0,0-.6,1.87,3.7,3.7,0,0,0,.41,1.93c2.24,1.2,4.76,1.48,7.16,2.15,1.36.37,2.06,1.07,1.85,2.53-.41,3-.59,6-.87,8.94a4.1,4.1,0,0,0-.11.61c0,1.21.5,2.42.07,3.64a33.78,33.78,0,0,1-.42,5.59,2.48,2.48,0,0,0,.85,2.3,30.09,30.09,0,0,1,2.95,3.13,37.41,37.41,0,0,1,6.51,10.64,2.34,2.34,0,0,0,.25,1.64c4.26,11.19,4.21,22.46.57,33.79a3.89,3.89,0,0,0-.18.58c-.1.37-.22.73-.35,1.1a30.73,30.73,0,0,1-1.72,4.35,60.54,60.54,0,0,1-14.07,19.72c-1.56,1.47-3,2.82-3.18,5.05-.35,5-1,10-1.36,15-.12,1.61.39,2.32,1.92,2.58,2.47.42,5,.72,7.42,1.18,3.12.48,6.23,1.06,9.37,1.47a3.41,3.41,0,0,0,2.35-.19l0-.08c.94.48,2,.23,3,.71.63.1,1.3.46,1.85-.21,0-.19,0-.39.07-.59a12.41,12.41,0,0,0,1.23-4.31c.93-5.5,1.92-11,2.9-16.48q2.37-13.26,4.68-26.54c.8-4.56,1.79-9.09,2.3-13.7,0,.32,0,.64,0,1,0,12.38.66,24.74.76,37.13,0,.35,0,.71,0,1.07s0,1,0,1.43c.34,9.95.77,19.9.74,29.86-.2,2.92.44,5.8.44,8.72a4.44,4.44,0,0,0,.66,2.57c2.1.37,4.08,1.15,6.12,1.72,4.21,1.19,8.35,2.62,12.6,3.67a24.3,24.3,0,0,0,4.27,1.31c.58-1.52,1.12-3,1.67-4.42.15-.6.28-1.21.47-1.81,1.27-3.86,2.5-7.73,3.82-11.57,1-2.83,1.74-5.74,2.93-8.49.39-.31.09-.85.39-1.18a.29.29,0,0,1,.08-.33c.16-.24.11-.55.3-.78h0c.08-.36.13-.74.24-1.08,1.44-4.39,2.85-8.78,4.34-13.15,1.12-3.3,2-6.67,3.37-9.89a2.64,2.64,0,0,0,.33-.94l0-.11.09-.09c.34-.3,0-.83.37-1.13s0-.83.37-1.14h0c.34-.31,0-.83.37-1.15a3.28,3.28,0,0,1,.3-1.26c2-6.08,4-12.16,6-18.23,1.11-3.32,2.07-6.7,3.39-10,.11-.42.18-.86.32-1.27,2-6.14,4-12.28,6.08-18.41,1-3,1.85-6.11,3.1-9.06a3.23,3.23,0,0,1,.3-1.26c1.43-4.33,2.84-8.66,4.28-13,1.26-3.78,2.55-7.56,3.83-11.34C710,101.3,709.73,101,709.27,100.77ZM637.76,151s0-.09,0-.14v0C637.83,150.94,637.8,151,637.76,151Z"/><path class="cls-1" d="M682.16,185.64h0Z"/><path class="cls-1" d="M547,209.19c-.35-.63.06-1.39-.33-2,0-.12,0-.24,0-.37.26-2.65,0-3.19-2.29-4.31a42.7,42.7,0,0,1-13.58-10.22l-.38-.4c-.14-.14-.26-.28-.41-.41-7.12-8.74-11-18.67-10.72-30-.14-9.52,2.54-18.29,7.1-26.56.78-1.42,1.84-2.71,2.17-4.35.06-.12.13-.24.18-.35a.41.41,0,0,1,.24-.3l0,0c.09-.15.23-.26.31-.41h0l0,0,0,0a.69.69,0,0,0,.36-.53,17.19,17.19,0,0,1,2.9-3.91,3.49,3.49,0,0,0,.9-3.24c-1-6.06-1.94-12.12-2.83-18.2-.46-3.16-1.16-6.28-1.33-9.49a5.33,5.33,0,0,1-.29-.88c-.88-5.64-1.79-11.27-2.59-16.92-.44-3.1-1.13-6.17-1.31-9.31a14.4,14.4,0,0,1-.64-3.49c-.11-.87-.44-1.18-1.31-1.17-2.39,0-4.78,0-7.16,0H503.36c-1.71,0-1.65,0-2,1.64a10.49,10.49,0,0,1-.66,2.92.87.87,0,0,0-.31.44,1,1,0,0,0,.24.9,1.63,1.63,0,0,0-.45.33,2.06,2.06,0,0,0-.29.83,6.46,6.46,0,0,1-.27,1.63,5.23,5.23,0,0,0-.12.54,8.57,8.57,0,0,1-.34,2c-.5,2.08-.65,4.21-1.14,6.28-1.84,10.07-3.56,20.16-5.37,30.23v0c-1.55-10-3.62-19.93-5.4-29.9a1.54,1.54,0,0,0-.58-1.13,55.49,55.49,0,0,1-1.5-8.26c-.29-.55.1-1.45-.86-1.63-.69,0-1.37.1-2,.1H455.17c-.44,0-.88,0-1.32,0a.88.88,0,0,0-1,.84l-.75,5.09a1.15,1.15,0,0,0-.26.19,5.7,5.7,0,0,0-.77,2.31c-.6,3.2-1.07,6.43-1.64,9.64a6.36,6.36,0,0,0-.13.89,6.52,6.52,0,0,1-.25,1.65,6.17,6.17,0,0,0-.15.84,6.9,6.9,0,0,1-.31,1.69c-.69,4.31-1.47,8.61-2.11,12.93a3.19,3.19,0,0,0-.15.59,11.28,11.28,0,0,1-.4,2.38c-.53,3.09-1.07,6.18-1.53,9.29-.71,4.71-1.82,9.36-2.19,14.12a5.93,5.93,0,0,0,2.17,2.53c2.11,1.88,4.23,3.73,6.28,5.67.69.65,1,1.22.15,2-3.45,3.46-6.86,7-10.34,10.4a8.45,8.45,0,0,0-2.78,5.3c-.09.75.38,1.48,0,2.21,0,.5,0,1-.1,1.5q-1,6.09-2.08,12.2a56.9,56.9,0,0,1-1.21,6.61c-.7,1.75.86,1.54,1.64,1.69,5,1,10.11,1.85,15.18,2.67,2.9.48,5.76,1.28,8.72,1.32a2.18,2.18,0,0,0,.81-.2c1.25.32,2.55.41,3.81.69s1.25.15,1.44-1.07c.41-2.54.76-5.09,1.2-7.63.52-3,.79-6,1.52-8.9,0-.5,0-1,.11-1.49q.69-4.37,1.39-8.73L473,140.52c1,.42,1.1,1.44,1.47,2.25,3.79,8.31,7.76,16.54,11.52,24.87.48.87.78,1.82,1.24,2.69.9,1.66,1.28,3.62,2.86,4.88,0,0,0,0,0,0a27.12,27.12,0,0,0,2.07,4.41,4.61,4.61,0,0,0,.9-1.82c1.42-3.4,2.53-6.92,4.11-10.26a4,4,0,0,1,.49-1.61c1.17-3,2.4-6.07,3.53-9.14,1-2.75,2.24-5.43,3.1-8.25l.07-.06c.42.09.21.44.28.68a12.94,12.94,0,0,0,.21,1.85c.78,5.55,1.74,11.08,2.45,16.64,1.3,8.35,2.55,16.7,3.83,25.05.37,2.46.36,5,1.53,7.3a34.56,34.56,0,0,1,.82,4.83c.27,1.71.25,1.7,1.92,2,3.91.59,7.82,1.22,11.73,1.8s8,1.14,11.93,1.71c1.85.63,3.86.46,5.71,1.08.53.29,1.15,0,1.68.29l.48,0c.53-.59.28-1.23.13-1.86C547.08,209.61,547.05,209.4,547,209.19Z"/><path class="cls-1" d="M612.33,137.15c-.88-2.92-1.85-5.88-4.21-8.07a38.19,38.19,0,0,0-7.46-7.93c-8.72-6.52-18.55-8.36-29.11-6.64a48.54,48.54,0,0,0-25.84,13.1,12.46,12.46,0,0,0-2.42,2.6l-.33.06a1.12,1.12,0,0,0-.82.37,4.69,4.69,0,0,0-.48.52,4,4,0,0,0-.29.39,9.85,9.85,0,0,1-.68.77c-7.87,9.69-12,20.63-11.06,33.24.11.81.28,1.6.42,2.4a34.22,34.22,0,0,0,13.23,22,4.59,4.59,0,0,0,2,1,2.66,2.66,0,0,1,.52.19,36.53,36.53,0,0,0,21.52,5.21,84.75,84.75,0,0,0,8.7-1.25c3.23-.24,6.08-1.68,9-2.9.16-.09.33-.17.49-.27a48.92,48.92,0,0,0,7.14-4.4c1.8-1.34,3.82-2.48,5.07-4.46.68-.1,1.07-.71,1.52-1.15a52.27,52.27,0,0,0,11.69-17.61C614.39,155.38,615.12,146.34,612.33,137.15Z"/><path class="cls-1" d="M433.45,142.1,424,133.44a.3.3,0,0,1-.27-.25.6.6,0,0,1-.45-.41,1.31,1.31,0,0,1-.37-.33v0a4.4,4.4,0,0,1-.39-.35h0l-10.43-9.15a76.67,76.67,0,0,1-5.64,5.95l-.1,0c-1,.11-1.53.85-2.21,1.43a3.39,3.39,0,0,0-.33.42,3,3,0,0,0-.27.35,35.31,35.31,0,0,1-15.23,5.76c-2,.3-4.08.76-6.14.25,3.12-3.11,6.1-6.38,9.09-9.61,6.8-7.31,13.7-14.53,20.47-21.86.72-.75,1.44-1.5,2.2-2.21.13-.12.25-.25.37-.38.65-1.23,2-2,2.36-3.42a56.06,56.06,0,0,0,5.86-6.36c-.23-.16-.15-.56-.46-.67v0l0,0s0,0,0,0a.48.48,0,0,0-.38-.41s0,0,0,0l-.05,0h0a.61.61,0,0,0-.34-.38h0l0,0a0,0,0,0,1,0,0,.82.82,0,0,0-.36-.4v0l0,0h0a1.38,1.38,0,0,0-.37-.39v0a2.41,2.41,0,0,0-.37-.41h0l-.37-.39h0l-.38-.38h0a4.44,4.44,0,0,1-.37-.38h0l-.38-.37h0a4.51,4.51,0,0,0-.39-.37h0a2.28,2.28,0,0,0-.39-.37h0c-.63-.5-1.28-1-1.9-1.51a46.31,46.31,0,0,0-16.54-8.74A53.86,53.86,0,0,0,374.37,77a57.79,57.79,0,0,0-27,12.13,24.43,24.43,0,0,0-4.56,4.47l-1.73,1.6c-1.86,1-2.74,2.87-3.81,4.53-6.57,10.28-7.83,21.5-5.74,33.28a38.58,38.58,0,0,0,12,21.57c2.19,2,4.32,4.23,7.36,5.07.39.19.8.35,1.18.56a51.36,51.36,0,0,0,23.62,6.23c8.4.27,16.47-1.46,24.43-3.93,3.66-1.14,7.17-2.66,10.74-4,.61-.35,1.31-.33,1.95-.62A68.24,68.24,0,0,0,426.57,149a1.65,1.65,0,0,0,.71-1.07c0-.06,0-.12-.06-.19A54.69,54.69,0,0,0,433.45,142.1Zm-58-29.31c-3.58,4.12-7.18,8.21-10.88,12.43a12.54,12.54,0,0,1-1.93-6.28c-.24-2.36.47-4.58,1.09-6.82,1-1.38,1.54-3.06,3-4.12,4.18-2.06,8.41-2.48,12.71-.38.05.1.09.2.13.3A47.49,47.49,0,0,1,375.41,112.79Z"/><path class="cls-2" d="M379.83,107.63a.34.34,0,0,0,0,.24.53.53,0,0,0-.3,0h0C379.39,107.59,379.54,107.54,379.83,107.63Z"/><polygon class="cls-1" points="135.36 75.88 135.35 75.88 135.36 75.88 135.36 75.88"/><path class="cls-1" d="M158.75,105.93c-.28-1.72-.75-3.41-1.14-5.11-.32-.33,0-.89-.42-1.17v0c-.17-.32-.37-.64-.52-1a43.76,43.76,0,0,0-13.06-17.16c-1.8-1.46-3.79-2.66-5.64-4-.12-.35-.5-.3-.74-.46h0c-.17-.27-.54-.2-.73-.42a1,1,0,0,0-.44-.31s0,0,0,0l0,0h0c-.15-.29-.5-.24-.7-.42h0c-.18-.24-.54-.16-.71-.42h0a1.27,1.27,0,0,0-.44-.28s0,0,0,0l0,0h0c-.16-.3-.52-.25-.75-.41s-.51-.22-.74-.38c0,0,0,0,0,0l0,0h0c-.19-.26-.53-.21-.76-.38,0,0,0,0,0,0l0,0h0c-.19-.24-.51-.21-.75-.36,0,0,0,0,0,0l0,0h0c-.22-.29-.58-.26-.87-.38a.16.16,0,0,1-.23-.07c-.22-.2-.55-.13-.76-.34h0c-.25-.24-.6-.22-.88-.35a.18.18,0,0,1-.26-.08c-.22-.17-.54-.14-.77-.3h0s0,0,0,0c-.29-.39-.83-.08-1.14-.39h0c-3.35-.81-6.7-1.59-10.11-2.14a111.33,111.33,0,0,0-37.32.46c-3.84.66-7.6,1.64-11.42,2.37a.29.29,0,0,1-.33.06c-.33.3-.83,0-1.17.32a.22.22,0,0,1-.29.07c-.37.28-.87,0-1.23.34,0,.1-.12.12-.22.05a5.89,5.89,0,0,0-.9.29.25.25,0,0,1-.31.07c-.35.29-.87,0-1.2.36h0c-.31.33-.81,0-1.13.35a.18.18,0,0,1-.26.06,5.26,5.26,0,0,0-.87.3.21.21,0,0,1-.28.07,8.57,8.57,0,0,0-.85.3.26.26,0,0,1-.31.07c-.25.17-.58.13-.83.3a8.19,8.19,0,0,1-.85.39,184.49,184.49,0,0,0-36.23,17,10.25,10.25,0,0,1-1,.48h0l-.42.29c0,.11-.09.14-.19.1a.61.61,0,0,0-.53.45,9.73,9.73,0,0,0,1.36,2.22c.36.65.7,1.31,1.07,2,1.81,3.21,3.87,6.27,5.52,9.56l-.07.17a.65.65,0,0,0,.14.33l.2.31c.09.17.16.35.24.52s.11.26.17.38a7.27,7.27,0,0,0,.43.83q4.71,8,9.47,16c1.18,2,1.51,2.08,3.62,1.26.65-.26,1.27-.55,1.89-.85,2.69-1.34,5.38-2.71,8.07-4.05,1-.51,1.75-.53,2.24.68,1.62,4,3.54,7.88,5.23,11.86,4,9,8.15,18,12.15,27.09S78,180.53,82,189.68a5.09,5.09,0,0,0,1.33,2,4,4,0,0,1,.78,1.48q5.51,12.24,11,24.49A44.86,44.86,0,0,1,97.33,223a4.23,4.23,0,0,1,.77,1.47c2.28,5.08,4.57,10.16,6.83,15.25a43.46,43.46,0,0,1,2.2,5.16c.33.4.59.92,1.28.53a2.7,2.7,0,0,1,.88-.15,5.69,5.69,0,0,1,1.91-.73q8.31-2.72,16.63-5.39c2-.61,4-1.23,5.93-1.81.67-.2,1-.53.71-1.24-.16-.47-.26-1-.38-1.45-.7-2.86-1.63-5.67-2.12-8.58-.33-.32-.07-.81-.33-1.15l-.06-.38a6.37,6.37,0,0,1-.36-.85c-1.27-4.89-2.56-9.78-3.8-14.67-.79-3.08-1.76-6.12-2.3-9.26a1.65,1.65,0,0,1-.35-.85q-3.39-13-6.81-26.07l10.26-7.17c3-1.55,5.28-3.94,7.68-6.18,1.9-1.77,3.93-3.48,5.18-5.84a3.27,3.27,0,0,0,1.55-1.25,80.07,80.07,0,0,0,9.12-12.89,15.53,15.53,0,0,0,2.12-4.78l.15-.41a.6.6,0,0,1,.21-.36c.05-.13.09-.26.13-.39a1.47,1.47,0,0,1,.24-.4,12.23,12.23,0,0,1,1-2.63C158.68,122.6,160.14,114.45,158.75,105.93Zm-37.53,31.18c-.32.7-1,1.31-.5,2.21a17.16,17.16,0,0,1-2.51,2.54c-.47-1.25-.87-2.31-1.28-3.38-.75-3.35-2-6.56-2.94-9.86-.79-2.76-1.88-5.43-2.4-8.27a1.71,1.71,0,0,1,1.59-.27c4.76.67,8,3.75,8.58,8.53C122.09,131.44,122.35,134.34,121.22,137.11Z"/><path class="cls-3" d="M725.14,92.85a11,11,0,0,1-1.3-.19L669.23,79.4c-.36-.09-.71-.28-1,.12-.62,2.12-1.06,4.28-1.64,6.41-.33,1.39-.54,2.8-1,4.17-.24,1.08-.51,2.14-.76,3.21a11.74,11.74,0,0,1-.31,1.27,4.1,4.1,0,0,0-.14.5,11.7,11.7,0,0,0-.43,2.49,3.92,3.92,0,0,1-.17,1.18,3.15,3.15,0,0,0-.11.44c-.05.27-.08.54-.14.81a2.08,2.08,0,0,1-.12.32c-.23,0-.13-.24-.19-.36a3.2,3.2,0,0,0-.1-.42,4.73,4.73,0,0,1-.22-1.12,3.34,3.34,0,0,0-.14-.7,5.42,5.42,0,0,1-.23-1.2,3.72,3.72,0,0,0-.14-.74,4.31,4.31,0,0,1-.16-1.29,10.32,10.32,0,0,0-.06-1.11c-.22-1.85-.93-3.59-1.09-5.45a18.72,18.72,0,0,0-1-3.68.77.77,0,0,0-.16-.15,2.84,2.84,0,0,0,.24-.26l-.63-.24c0-.2-.06-.39-.08-.59-.07-1.58-.62-3.07-.81-4.62-.15-1.12-.7-1.62-1.89-1.88-19.23-4.18-38.43-8.45-57.65-12.66a68.82,68.82,0,0,0-7.91-1.6c-1.14,2.45-.48,5-.44,7.52a8.21,8.21,0,0,1,.28,2.61c0,3.83-.12,7.67.1,11.5a3,3,0,0,0,.45,1.28c0,1.55,0,3.09,0,4.64,0,2.14,0,4.28,0,6.42.15,1.12-.3,2.31.42,3.35,2.08,1.38,4.56,1.35,6.86,1.91a1,1,0,0,0,1-.34H600c-.15.82.92.66,1.13,1.19.18,1.38-.3,2.71-.29,4.08,0,.84-.38,1.12-1.2.68-1.49-.78-3.12-1.27-4.64-2-15-6.94-36.3-1-49.28,7.81-.35.24-.65.63-1.22.45-.66-4.12-1.29-8.28-2-12.41-.49-3-.77-6-1.5-8.89a6.9,6.9,0,0,0-.17-1.87c-1-6-1.88-12.1-2.87-18.14-.48-2.9-.76-5.83-1.49-8.68-.38-4-1.18-8-1.82-12.07-.22-1.43-.25-1.45-1.76-1.45h-41.6c-.54,0-1.14-.21-1.59.29-1,1.29-.91,2.85-1.22,4.31-.46,2.21-.52,2.28-2.83,2.33a73,73,0,0,0-8.1.17,3.3,3.3,0,0,1-2.18.31H451.92l-10.14.06a.66.66,0,0,0-.81.26.78.78,0,0,1,.37.49c-.08.24-.15.48-.23.72a4.22,4.22,0,0,0-.14.79,6.43,6.43,0,0,1-.25,1.57,4.93,4.93,0,0,0-.15,1.07,7.35,7.35,0,0,1-.22,1.62,1.76,1.76,0,0,0,.08.82l.05.07a3,3,0,0,0-.21.74,13.18,13.18,0,0,1-.73,3.58,90.56,90.56,0,0,1-1.37,9.42,17.17,17.17,0,0,1-.9,4.54l0,2.19c-.65,1.35-.47,2.88-1,4.43a7.73,7.73,0,0,1-2.44-2.86h0a1.85,1.85,0,0,0-.14-.14.43.43,0,0,1,0,0A31.48,31.48,0,0,0,427,78.9c-.82.1-1.21-.57-1.71-1a57.88,57.88,0,0,0-20-11.42,48,48,0,0,0-13.21-2.74c-1.44-.54-3-.31-4.44-.42-.42,0-.75-.06-.55-.61a.94.94,0,0,0,.75-.41,171.3,171.3,0,0,1,1.49-.79h0a.84.84,0,0,0,.73-.39h0a1,1,0,0,1,.54-.31h.13l.1-.09c.14-.1.24-.24.42-.28h0l-.41.28a.41.41,0,0,0,.41-.26.86.86,0,0,0,.74-.39.89.89,0,0,0,.75-.4.87.87,0,0,0,.75-.39.89.89,0,0,0,.74-.4.81.81,0,0,0,.73-.39h0a.88.88,0,0,1,.55-.31h.13l.09-.09a1.15,1.15,0,0,1,.41-.28h0l-.41.28a.4.4,0,0,0,.41-.26,79.76,79.76,0,0,0,1.48-.79.9.9,0,0,0,.76-.4.87.87,0,0,0,.74-.39h0a.82.82,0,0,0,.73-.39h0a.9.9,0,0,1,.56-.31h.13l.08-.09c.14-.1.24-.24.42-.28h0a.5.5,0,0,0-.42.28.42.42,0,0,0,.42-.25.86.86,0,0,0,.73-.4.91.91,0,0,0,.76-.4.87.87,0,0,0,.74-.39.85.85,0,0,0,.74-.4h0a.85.85,0,0,0,.74-.39h0a.94.94,0,0,1,.56-.32h.12l.09-.09c.13-.1.24-.25.42-.28h0a.49.49,0,0,0-.42.28.39.39,0,0,0,.41-.26.87.87,0,0,0,.74-.39.85.85,0,0,0,.75-.4.87.87,0,0,0,.75-.39A.85.85,0,0,0,409,51a7.83,7.83,0,0,0,2.67-1.46h0a.84.84,0,0,0,.77-.41h0c.4-.17.82-.3,1.19-.5,3.7-2,7.37-4,11.06-5.94l.82-.46c.49-.26.54-.6.22-1.06-1.92-2.76-3.64-5.66-5.71-8.32A6.28,6.28,0,0,0,418.93,31q-9.8-14.62-19.59-29.25c-.37-.56-1-1-.95-1.79H398a.72.72,0,0,1,0,.29.85.85,0,0,0-.8.44l.25.05,0,0c-2.64,2.57-4.95,5.44-7.37,8.22-.12.12-.23.24-.34.37l-.17.18c-.11.12-.23.23-.33.36l-.17.18a3.73,3.73,0,0,0-.32.36c-.1.13-.2.26-.29.4-1.16,1.32-2.35,2.63-3.47,4-.8.74-1.34,1.7-2.09,2.49-.12.12-.23.23-.34.36l-.17.18-.33.34-.17.17c-.12.12-.23.23-.33.35a2.92,2.92,0,0,0-.32.38c-.91,1.34-2.24,2.31-3.12,3.67-1.2,1.19-2.24,2.53-3.35,3.79-1.11,1-1.81,2.29-2.9,3.27-.12.12-.25.23-.36.36a3.09,3.09,0,0,0-.35.38c-.95,1.42-2.27,2.52-3.31,3.88-.7,1.05-1.78,1.79-2.49,2.84l-.28.41a2.43,2.43,0,0,1-.14.2l-.34.36-.35.35c-.44.55-1.16,1-1,1.82-.84.61-1.14,1.75-2.17,2.18a8.63,8.63,0,0,1-2.64,3,1.19,1.19,0,0,1-.33.86,47,47,0,0,0-3.25,3.65c-2.05,2.36-4.15,4.68-6.23,7a1.74,1.74,0,0,0-.42,1c.14,1.95,1.85,2.87,2.87,4.21.62.82,1,2.11,2.4,2.13h0c-.2.33,0,.73.19,1.12a6.77,6.77,0,0,0,1.17,1.45c.83.9,1.06,1.56-.4,2.16a54.31,54.31,0,0,0-6.78,3.5l-.46.25c-.15.09-.3.17-.44.27-.81.64-1.82.91-2.63,1.54,0,.51-.47.65-.83.86a9.3,9.3,0,0,0-2,1.2A49.76,49.76,0,0,0,335.37,80c-.75.24-1.17-.27-1.64-.68-1.17-1-2.33-2.1-3.52-3.13-3.46-3-6.76-6.18-10.35-9a1,1,0,0,0-.36-.33l0,0a.8.8,0,0,0-.65-.51s0,0,0,0a.51.51,0,0,1-.41-.39.61.61,0,0,1-.39-.36l0,0a.8.8,0,0,1-.42-.39l0,0a1.28,1.28,0,0,1-.42-.38h0a3.42,3.42,0,0,1-.4-.36h0a3.61,3.61,0,0,0-.33-.44q-11.16-9.9-22.33-19.79c-.31-.27-.58-.71-1.11-.48a18.93,18.93,0,0,0-2.43,3.93l-.29.65a3.17,3.17,0,0,0-.21.41c-.1.2-.21.39-.32.58a3.84,3.84,0,0,0-.21.4c-.32.63-.62,1.27-1,1.88a15.48,15.48,0,0,1-1.08,1.9l-.36.63c-.08.14-.16.28-.23.43-.31.65-.64,1.3-.95,2-.1.21-.22.43-.33.64a3.48,3.48,0,0,0-.22.43c-.33.66-.65,1.31-1,2-.4.92-1,1.7-1.46,2.6l-.34.66a4.92,4.92,0,0,0-.24.45,4.06,4.06,0,0,0-.59,2c-.71.21-.81.88-1,1.53a.23.23,0,0,0,.17.26.3.3,0,0,1-.27-.07c-.74.16-.72,1.32-1.59,1.35-.35-.23-.39-.62-.56-.94a3.37,3.37,0,0,0,.15-.48c.37-3.39,0-6.77.09-10.16a6.8,6.8,0,0,1,.07-1.69,6.46,6.46,0,0,0,.28-.73.52.52,0,0,0-.14-.46c-.68-.61-.34-1.4-.36-2.11,0-2.3,0-4.59,0-7a7.81,7.81,0,0,0-2.32.58q-23.12,7.37-46.23,14.76c-6.31,2-12.63,4.07-18.94,6.1a5.77,5.77,0,0,0,.1.6c.15.58.08,1.3.23,1.88,0,.82,0,1.64,0,2.46.43.47.32,1,.33,1.6q0,3.18,0,6.34c.5.52.33,1.17.34,1.78,0,1.8,0,3.6,0,5.41.54.5.34,1.16.35,1.76,0,2.06,0,4.11,0,6.16.39.26.36.65.36,1a1.22,1.22,0,0,0-.32.41,24,24,0,0,0-.19,5.15,1.53,1.53,0,0,0,.94,1.65,7.2,7.2,0,0,0,3.12-.47,54.31,54.31,0,0,1,6.54-1.62c1.18-.13,1.08.76,1.17,1.48.57,4.5.82,9.05,1.38,13.55.15,1.24-.48,1.22-1.35.85l-1-.42a4.6,4.6,0,0,0-.52-.19c-1.5-.49-3-1-4.53-1.36-1.74-.23-3.4-.81-5.12-1.12-.12.75-.64.58-1.15.53a56.34,56.34,0,0,0-17.43.75,60.81,60.81,0,0,0-21.91,9.22c-.42.29-.78.82-1.51.61a10,10,0,0,1,.12-1.13,52.8,52.8,0,0,0,1-15,33,33,0,0,0-1.84-9.77,3,3,0,0,0-.26-1.27,54.3,54.3,0,0,0-10-17.92,45.93,45.93,0,0,0-9.24-8.75,1.37,1.37,0,0,0-.22-.3c-6-4.29-12.22-8.18-19.24-10.62-8.21-2.85-16.76-3.85-25.34-4.42a120,120,0,0,0-27.62,1.52A166.78,166.78,0,0,0,44.6,66.07a110,110,0,0,0-12.74,5.59,20.64,20.64,0,0,0-3.27,1.43C18.75,77.79,9.66,83.75.5,89.6a3.16,3.16,0,0,0-.5.53c1.07.64,1.17,2,2.08,2.75a4,4,0,0,0,1.15,1.94.45.45,0,0,0,.1.27c.24.52.48,1,.71,1.55a.74.74,0,0,0,.4.72h0a25.63,25.63,0,0,1,2.64,4.5,12.08,12.08,0,0,1,1.34,2c.83,1.21,1.31,2.65,2.34,3.73,0,.24.07.47.1.7A34,34,0,0,1,14.24,114a23.7,23.7,0,0,1,3,5.25,16.59,16.59,0,0,1,2.61,4.2.75.75,0,0,0,.39.74h0a37,37,0,0,1,3.39,5.67,20.11,20.11,0,0,1,2.26,3.78.78.78,0,0,0,.38.75h.37a4.74,4.74,0,0,0,.74,1.69c.62,1.2,1.65,2.18,1.92,3.58,1.56,1.63,2.39,3.7,3.39,5.67a68.53,68.53,0,0,0,9.44-4.49c.41-.05.86,0,1.13-.42a.79.79,0,0,0,.76-.36l.74,0a.81.81,0,0,1,.76-.36c.55,1.24,1.14,2.48,1.67,3.73,1.15,2.8,2.64,5.46,3.63,8.33a51.65,51.65,0,0,1,3.39,7.55l2.64,5.29c0,.12,0,.25,0,.38a.69.69,0,0,1,0,.32l.32.42h0a1,1,0,0,1,.06.35.75.75,0,0,0,.38.79,27.5,27.5,0,0,1,2.23,4.91,89.94,89.94,0,0,1,4.18,9.42h0a.77.77,0,0,0,.36.77,5,5,0,0,1,.39.62q2.1,4.59,4.21,9.2c0,.12,0,.23,0,.35h0a.86.86,0,0,0,.34.8h0a.85.85,0,0,0,.39.72,44,44,0,0,1,2.67,6h0a.77.77,0,0,0,.36.75.39.39,0,0,1,.05.28,1.51,1.51,0,0,0,.32.47,21.21,21.21,0,0,1,2,4.51h0a.7.7,0,0,0,.38.78,42.24,42.24,0,0,1,2.23,4.71c1.54,3.19,2.78,6.53,4.48,9.65a34.06,34.06,0,0,0,2.34,5.49c2.12,4.71,4.06,9.51,6.41,14.12a.8.8,0,0,0,.36.75h0a1,1,0,0,0,.37.8.62.62,0,0,0,.08.35,4.15,4.15,0,0,1,.3.43A.45.45,0,0,0,92,243a1.22,1.22,0,0,1,.3.47.39.39,0,0,0,.05.28.78.78,0,0,0,.36.74h0a.82.82,0,0,0,.36.76h0a42.7,42.7,0,0,0,2.33,5.54c1.45,3.33,3,6.62,4.46,10,.38.86.81,1,1.73.73,2.54-.88,5.12-1.66,7.69-2.47,5.14-1.63,10.29-3.2,15.4-4.9,3.56-1.19,7.22-2.06,10.68-3.53l.71-.14a.42.42,0,0,0,.43-.22l.71-.15h0a.4.4,0,0,0,.43-.21l.7-.15a.82.82,0,0,0,.79-.3.71.71,0,0,0,.35-.07.81.81,0,0,0,.8-.3L141,249a.41.41,0,0,0,.44-.24l.71-.13a.42.42,0,0,0,.43-.23l.7-.14a.4.4,0,0,0,.43-.22c.41-.05.85,0,1.13-.4.42,0,.85,0,1.13-.38.43,0,.86,0,1.15-.38v0c.8.23,1.53-.67,2.35-.13,1.08-.34,1.18-1.06.91-2.05-1-3.49-1.84-7-2.77-10.49-.67-2.46-1.14-5-2-7.38a1.47,1.47,0,0,0-.33-1.24.2.2,0,0,0-.05-.28c-.06-.36-.08-.74-.17-1.09q-2-7.92-4.06-15.81a7.36,7.36,0,0,0-.11-1.69.33.33,0,0,0,.12.05,2.09,2.09,0,0,1-.14-.17c0-.21-.07-.43-.1-.64-.23-1.17-.57-2.31-.84-3.47-.1-.35-.21-.69-.28-1.05a5.51,5.51,0,0,0-.2-.8c-.21-.47-.37-1-.94-1.09.53-.64.28-1.35.11-2-.41-1.67-.78-3.36-1.29-5-.6-2-1-4-1.54-6s-1.14-4.23-1.72-6.34a2,2,0,0,1,.8-2.45c3.15-2.27,6.07-4.81,9.14-7.38-.65,3.51,0,7,.08,10.43,0,.19.08.36.13.54a7.93,7.93,0,0,1,.23,1.88c.3,1.71.71,3.39,1.13,5.08,0,.17.1.34.17.52.12.34.23.69.33,1a40.74,40.74,0,0,0,1.68,4.68c.25.55.32,1.34,1.19,1.35a.7.7,0,0,0-.15.27,1.32,1.32,0,0,0,0,.56,7.29,7.29,0,0,0,.42,1,45.76,45.76,0,0,0,4.69,7.5,45.24,45.24,0,0,0,8.91,8.79,50.07,50.07,0,0,0,14.76,7.46,5.62,5.62,0,0,0,.55.15,10.41,10.41,0,0,1,1.45.41,52.93,52.93,0,0,0,15.25,1.55c2.24-.25,4.49-.44,6.73-.82a59.67,59.67,0,0,0,19.61-6.93,2.46,2.46,0,0,1,.27-.17c0,.09,0,.18,0,.27l.77-.48c.32-.25.65-.48,1-.75a1,1,0,0,0,.29-.35c.59-.49,1.3-.77,1.92-1.21,1.07-.68,2.08-1.44,3.13-2.16a4.56,4.56,0,0,0,.42-.31,3.25,3.25,0,0,0,.39-.35c.77-.75,1.74-1.29,2.51-2a7,7,0,0,1,.69-.64c.43-.3.77-1,1.39-.71s.38.89.42,1.36c.16,2,.36,4,.55,6,.35,3.66.59,7.33,1,11,.17,1.4.8,2.19,2.29,2.11,14.92-2.2,29.88-4.15,44.75-6.69a1.16,1.16,0,0,0,.78-.48c.62-.56.33-1.29.33-1.94q0-14,0-28a2.88,2.88,0,0,0,.45-2.15c0-2.51,0-5,0-7.54,0-2.1.12-2.18,1.95-1.23,6.54,3.36,13.28,6.31,19.81,9.7a6.49,6.49,0,0,0,2.09.81c.24,0,.48,0,.72-.07a39.8,39.8,0,0,0,6.25,3.07c0,.11,0,.22.05.34l.68,0a6.13,6.13,0,0,0,1.93,1.12l22.39,11a5,5,0,0,1,1.77,1,5.18,5.18,0,0,1,1.72.71c5.62,2.79,11.25,5.56,16.84,8.39,1.23.61,2.63.88,3.66,1.86a6.58,6.58,0,0,1,.89.28l17.38,8.67a1.2,1.2,0,0,0,.29.38c.6-.58.28-1.31.28-1.95q0-16.5,0-33c0-2,0-4,.06-6,0-.1,0-.19,0-.29.12-.73,0-1.49.07-2.21.15-1.2-.42-2.48.42-3.59a10.91,10.91,0,0,1,3-.42,105.44,105.44,0,0,0,35.09-11.55,8.38,8.38,0,0,0,1.54-1.05c.39.35-.09.66-.06,1a3.58,3.58,0,0,0-.13.74,5.73,5.73,0,0,1-.25,1.48,3.9,3.9,0,0,0-.13.76,6,6,0,0,1-.25,1.52,4,4,0,0,0-.14.78,6.25,6.25,0,0,1-.25,1.82,5.55,5.55,0,0,0-.13.8,9.38,9.38,0,0,1-.27,1.67,2,2,0,0,0,0,.88s0,0,0,0a3.34,3.34,0,0,0-.1.43c-.63,3.89-1.28,7.78-1.92,11.67-.1,1,.49,1.33,1.32,1.45,1.06.15,2.12.27,3.17.44,4.5.71,9,1.45,13.51,2.15,3.64.56,7.3,1,10.93,1.67a27.65,27.65,0,0,1,5.48,1.06,16.46,16.46,0,0,1,2.79.26c1.95.37,3.93.59,5.89.91,3,.49,6,1,9,1.52,1.15.51,1.79.12,2-1.1.88-5.52,1.72-11,2.53-16.45,2.59,4.84,5.26,9.75,7.95,14.64.69,1.24,1.06,2.72,2.32,3.6,1.47,1.62,1.86,3.92,3.42,5.63,1.32-1.49,1.73-3.39,2.87-4.85a63.34,63.34,0,0,0,5.4-9.85c.24,1.43-.28,3.55,1.09,5.33a.17.17,0,0,1,0,.05,1.76,1.76,0,0,0-.35.28c-.43,1.45.29,2.86.21,4.3.38,3.28.88,6.54,1.13,9.84a3.5,3.5,0,0,0,.12.63,7.83,7.83,0,0,1,.24,2.46c.12,1.85.56,3.45,2.84,3.59,18.61,3.36,37.25,6.54,55.87,9.87a4.17,4.17,0,0,0,2.59,0c.08-.09.23-.19.22-.27-.58-3.7-1-7.43-1.82-11.09a2.38,2.38,0,0,0-.3-1.65h0l-.06-.6c0-.59,0-1.18.72-1.4l-.63-.07a2.28,2.28,0,0,0,.15-.44,13.81,13.81,0,0,0-.23-2.22c-.26-1.83-.12-2,1.67-1.84s3.61.09,5.42.06c.78,0,1.61,0,2.06-.87a38.54,38.54,0,0,0,9-1.34,96.76,96.76,0,0,0,9.79-3.25,3.44,3.44,0,0,1,2.19-.93,11.64,11.64,0,0,1-.08,2.84c-.32,3.28-.95,6.53-1,9.84a80.84,80.84,0,0,0-1.05,8.64l1.1.13a.77.77,0,0,0,.76.25,77.18,77.18,0,0,1,8.17,1c4,.49,8,1.12,12.05,1.69,3.28.46,6.54,1,9.82,1.39a51.83,51.83,0,0,0,7.25.89c.3.36.74.32,1.15.37,0,.24,0,.49,0,.73l0,1.17v1.08c0,.14,0,.29,0,.43l0,0a1,1,0,0,0-.25.07,4,4,0,0,0-.36,2.28c.06,2.29.46,4.56.36,6.87a9.63,9.63,0,0,0,.24,3.7c.57.9,1.57,1,2.44,1.28,9.9,3.19,19.83,6.28,29.77,9.37,3.22,1,6.33,2.44,9.73,2.81.56-.11.57-.61.71-1,.56-1.66,1.14-3.32,1.69-5q2.21-6.8,4.39-13.6a.88.88,0,0,0,.26-.8.16.16,0,0,0,.07-.23c1.58-4,2.81-8.16,4.16-12.25,1-3.09,2.21-6.12,3-9.29a.91.91,0,0,0,.31-.86.24.24,0,0,0,.08-.28c1.58-3.94,2.76-8,4.09-12,.93-2.77,2-5.51,2.67-8.37a.86.86,0,0,0,.31-.82.28.28,0,0,0,.07-.31.83.83,0,0,0,.3-.82h0a.29.29,0,0,0,.08-.32.84.84,0,0,0,.3-.81.28.28,0,0,0,.07-.32,1.49,1.49,0,0,0,.39-1.19,1.41,1.41,0,0,0,.38-1.12,4.61,4.61,0,0,0,.69-1.72q3.66-11,7.29-22c.9-2.74,2-5.42,2.62-8.25a5.11,5.11,0,0,0,.69-1.73c1.92-5.76,3.85-11.53,5.74-17.3,1-3.09,2.2-6.13,3-9.3a.89.89,0,0,0,.31-.86l.12-.36a5.25,5.25,0,0,0,.68-1.73q3.63-10.91,7.23-21.82a18.57,18.57,0,0,0,1.08-3.59,59.21,59.21,0,0,0,2.14-6.08A1.18,1.18,0,0,0,725.14,92.85Zm-15.35,34.87-.11-.12A.19.19,0,0,1,709.79,127.72Zm-65.9-46.79s0,0,0,.07l0,0Zm-102,50.49h0s0-.07,0-.11,0,.06,0,.11Zm-108-29.27a1.16,1.16,0,0,0,.15-.07c-.07-.24.07-.08.07.17a4.73,4.73,0,0,1-.22.9,3.67,3.67,0,0,0-.11.74c-.41.28-.35.84-.44,1.29-.42,2.22-.77,4.45-1.11,6.69-.43,2.83-.84,5.67-1.5,8.73-2.42-2-4.51-4-6.63-5.92-.74-.69-.45-1.27.07-2,1.5-2,3.45-3.5,5-5.38,1.16-1.41,2.77-2.51,3.41-4.34A2.46,2.46,0,0,0,433.91,102.15ZM385.43,32.49c1.87-2.25,3.7-4.52,5.64-6.71,1.27-1.7,2.78-3.21,4-4.94.85-1.19,1.36-1.06,2.14.07,2.75,3.95,5.69,7.75,8.53,11.64.44.6.83,1.4,1.71,1.43v.15a.93.93,0,0,0,.18.32l.09.15c.07.11.12.22.18.32a2.11,2.11,0,0,0,.18.33,1.76,1.76,0,0,0,.24.3l.14.14.26.29.26.3c.12.15.23.32.34.48a2.54,2.54,0,0,0,.23.34,3.71,3.71,0,0,0,.23.32,3.9,3.9,0,0,1,.19.35,1,1,0,0,1,0,.59c-2.25,1.67-4.9,2.61-7.35,3.92-3,1.49-6.05,3-9.08,4.55-.63.32-1.45.48-1.6,1.37a1.7,1.7,0,0,0-.37.1l-.11,0a3.84,3.84,0,0,0-.35.18l-.3.15-.14.07-.11.06-.37.19-.13.06-.14.07-.09.05a2.53,2.53,0,0,0-.37.18.8.8,0,0,0-.16.08.52.52,0,0,0-.13.06l-.08,0-.37.19-.16.08-.16.08,0,0-.36.19-.2.09-.13.06-.2.1-.37.14c-.19.07-.4.12-.59.18a2,2,0,0,0-.39.19,2,2,0,0,0-.34.31,1.71,1.71,0,0,0-.11.14,11,11,0,0,0-2.34,1.14h-.1a2.46,2.46,0,0,0-.47.1,4.06,4.06,0,0,0-.6.27l-.37.19-.52.27c-.11,0-.23.09-.34.15l-.5.25a3.3,3.3,0,0,0-.32.18c-.15.09-.32.16-.48.24a2.59,2.59,0,0,0-.33.17,4.52,4.52,0,0,1-.5.23l-.35.17-.35.17-.36.18a3.14,3.14,0,0,0-.37.18l-.37.18-.38.19-.37.19-.37.19a2.53,2.53,0,0,0-.37.18l-.37.19-.36.18a3.9,3.9,0,0,0-.35.19,3.65,3.65,0,0,0-.34.18l-.51.26a2.16,2.16,0,0,0-.34.17l-.52.22-.38.13c-.29.08-.59.11-.87.18a1.72,1.72,0,0,0-.54.18c-1.18.68-2.12.73-3-.64-1.33-2.09-1.4-2.18-.1-3.73a38.26,38.26,0,0,0,3.51-4.4c.08-.14.16-.28.23-.42l.12-.19c.08-.13.17-.24.25-.36a2.46,2.46,0,0,0,.22-.34l.27-.51a1.34,1.34,0,0,0,.11-.14l.25-.27s.13-.12.13-.13.17-.16.25-.25l.13-.13c.09-.09.18-.17.26-.26l.13-.13.25-.29a3.45,3.45,0,0,0,.2-.32c.06-.11.13-.22.19-.34l.12-.15c.09-.09.17-.19.26-.29l.14-.13a4,4,0,0,0,.29-.29l.15-.14a2.78,2.78,0,0,0,.26-.34,2.52,2.52,0,0,0,.21-.4.08.08,0,0,0,0-.06,3.11,3.11,0,0,0,.62-.82,1.7,1.7,0,0,0,.22-.15,1.48,1.48,0,0,0,.33-.28c.05-.05.11-.09.16-.15a3.28,3.28,0,0,0,.52-.68c.12-.18.25-.35.37-.52l.14-.16c.09-.1.19-.2.28-.31l.14-.15q.17-.15.3-.3l.15-.15.27-.32.24-.34c.11-.18.23-.35.35-.51l.13-.17.28-.3.13-.15a3.83,3.83,0,0,0,.28-.29l.13-.14a2.43,2.43,0,0,0,.26-.3,1.85,1.85,0,0,0,.21-.33,3.54,3.54,0,0,0,.19-.33,1.43,1.43,0,0,1,.11-.15,1.07,1.07,0,0,1,.14-.16l0,0,.08-.1.14-.13c.08-.09.17-.17.25-.27l.14-.12.26-.27.13-.13a2.2,2.2,0,0,0,.24-.28,1.25,1.25,0,0,0,.21-.3,1.54,1.54,0,0,0,.17-.34s0-.08,0-.14A3.74,3.74,0,0,0,385.43,32.49ZM312.7,132.58c-.07-.46-.54-.56-.9-.71l-2.63-1.05c-2.06-.84-2.08-.9-.57-2.42s3.1-3.12,4.66-4.67,2.95-3,4.76-4.69a60.06,60.06,0,0,0,.31,10.91c.13,1.21-.05,2.58.95,3.56-.42.76-1,.9-2,.51C315.79,133.43,314.39,132.5,312.7,132.58ZM21.84,92.33a191.16,191.16,0,0,1,19.34-10C46.38,80,51.74,78,57.05,76a5.61,5.61,0,0,1,.87-.47,3.69,3.69,0,0,0,.42-.17,8,8,0,0,1,.82-.29l.4-.13a5.74,5.74,0,0,1,.8-.26l.42-.13c.26-.1.54-.19.82-.27l.42-.13a5.86,5.86,0,0,1,.85-.21,3.25,3.25,0,0,0,.42-.11,6.18,6.18,0,0,1,.83-.27l.41-.13a4.86,4.86,0,0,1,1-.25,3,3,0,0,0,.43-.11c.36-.14.74-.2,1.1-.33a.68.68,0,0,0,.12-.12c.08,0,.18.06.26.11a5.76,5.76,0,0,0,3-.35,117.74,117.74,0,0,1,22.69-3.45,104.46,104.46,0,0,1,31.4,3,2.93,2.93,0,0,0,1.85,0h0a1.84,1.84,0,0,0,.36.15h0l.38.17.37.18.56.26.4.13a3.81,3.81,0,0,1,.57.19l.37.17a4.45,4.45,0,0,0,.54.25,1.68,1.68,0,0,0,.38.12l.56.17.35.15c.17.07.35.16.52.25l.34.18.36.17.36.19.36.18.37.18.12.07.06,0,.16.09.17.1a3.5,3.5,0,0,0,.3.24,1.32,1.32,0,0,0,.32.2l.49.25a2,2,0,0,0,.32.18l.31.18s.16.1.16.1a2.26,2.26,0,0,0,.29.23,1.55,1.55,0,0,0,.32.2,4.82,4.82,0,0,1,.5.27l.31.24c.22.2.39.44.59.66a4.77,4.77,0,0,0,1,.82A43.89,43.89,0,0,1,156.19,98.7c.17.41.35.84.84.93,0,.06,0,.12,0,.18a13.9,13.9,0,0,1,.16,1.43,12.92,12.92,0,0,0,.38,1.85,40.49,40.49,0,0,1,.48,16.8,63,63,0,0,1-3.75,12.61c-.1.28-.19.56-.29.83s-.14.36-.19.54a1.56,1.56,0,0,0-.1.85.87.87,0,0,0,.09.11,11.35,11.35,0,0,0-.62,1,72.56,72.56,0,0,1-7.43,11.91,38.62,38.62,0,0,1-5.09,6,38.7,38.7,0,0,1-4.06,4.43c-2.43,2.48-5.13,4.66-7.74,6.95l-.39,0c-3.57,2-6.72,4.66-10.15,6.88a1.37,1.37,0,0,0-.64,1.08,2.73,2.73,0,0,0,0,.57c2,8.25,4.28,16.42,6.35,24.66a1.9,1.9,0,0,0,.72,1.28s0,.09-.05.15a3.29,3.29,0,0,0,.06,1.13c1.85,7.51,3.85,15,5.8,22.46.13.5.2,1.17,1,1.19h0c-.07.08-.17.13-.2.25,0,.48.07,1,.1,1.44.56,2.94,1.33,5.83,2.13,8.7.37,1.33,0,2-1.26,2.36-1.6.49-3.23.9-4.82,1.44-5.44,1.74-10.86,3.55-16.32,5.23-.74.23-1.74.24-2,1.3a7.83,7.83,0,0,0-2.12-.57c.3-1-.3-1.81-.66-2.62-2.6-5.89-5.26-11.76-7.87-17.65-.27-.6-.43-1.35-1.3-1.42-.16,0-.31-.1-.47-.15.18,0,.37,0,.54.06.3-1.08-.31-1.95-.71-2.85-3.15-6.9-6.16-13.87-9.34-20.76-1.22-2.66-2-5.54-3.93-7.85l-.19,0a7.66,7.66,0,0,0-.58-1.46c-2.87-6.4-5.71-12.81-8.61-19.2-1.28-2.84-2.41-5.76-3.92-8.5a5.18,5.18,0,0,0-.66-1.74Q65,150.6,60.59,140.68c-.84-1.87-1.75-3.72-2.62-5.59-1.66-4.25-3.68-8.35-5.52-12.53-.52-1.19-.56-1.18-1.76-.6l-11,5.39c-1.6.78-1.4,1.1-2.52-.81-1.87-3.18-3.74-6.38-5.65-9.55-1.46-2.4-2.75-4.91-4.39-7.2a.93.93,0,0,0-.45-.75.79.79,0,0,0-.41-.71v0a1,1,0,0,1-.27-.39v0a.5.5,0,0,0,.26.41.47.47,0,0,0-.24-.43s.05,0,.06-.07c.19-.83-.33-1.42-.7-2-1.85-3.16-3.72-6.31-5.58-9.47a15,15,0,0,1-1.15-1.88,1.33,1.33,0,0,1-.05-.4,1.13,1.13,0,0,1,.23-.29,1.37,1.37,0,0,0,.25-.29.66.66,0,0,0,0-.1C20.24,93.56,21,92.82,21.84,92.33ZM211,206c-10.36,4.62-21,5.7-31.89,2-5.31-1.77-9.6-5.09-13.67-8.78a4.78,4.78,0,0,0-.44-.29l-.4-.28a3.23,3.23,0,0,1-.58-.64,3.43,3.43,0,0,0-.24-.33,1.87,1.87,0,0,0-.26-.3,1.85,1.85,0,0,0-.14-.14c-.09-.1-.17-.2-.26-.29l-.22-.33a3.86,3.86,0,0,0-.32-.56,1.52,1.52,0,0,0-.34-.33l-.15-.08a5.79,5.79,0,0,0-.65-1.1,37.7,37.7,0,0,1-5.8-18.64,65.23,65.23,0,0,1,.48-9.37c.48-1.81.91-3.64,1.46-5.42a51,51,0,0,1,11.8-20.32,5,5,0,0,1,1.3-1.53c1.42-1.39,2.86-2.73,4.29-4.09v0c.07.05.15.07.21.12,1.15-.09,1.88-.95,2.73-1.56,9.67-6.9,20.27-10.54,32.3-9.45a35.9,35.9,0,0,1,21,9.15c.55.49,1,1.11,1.86,1.18l.08,0a5.67,5.67,0,0,0,1.25,1.38l.25.3c.17.26.32.54.51.78a35.77,35.77,0,0,1,6.47,13.67,65.57,65.57,0,0,1,1.19,10.07h0a12.39,12.39,0,0,0-.3,3.79c-.11.49-.24,1-.31,1.47a51,51,0,0,1-11.1,24.95c-.87,1.09-1.79,2.14-2.7,3.2l-.38.11c-.87.56-1.55,1.36-2.45,1.87A49.26,49.26,0,0,1,211,206Zm120.79-15s0,0,0-.06S331.84,190.88,331.83,190.9Zm32.63,12.53c-.62-.28-1.26-.53-1.87-.84q-13.68-6.81-27.35-13.65c-.5-.25-1-.46-1.52-.67,0,0,0,0,0-.05-.48-1-1.52-1.26-2.4-1.7l-55.9-28a16.8,16.8,0,0,0-1.88-.87c-.74-.27-1.37-.23-1.63.68a14.66,14.66,0,0,0-.15,3.18q0,21.72,0,43.44a13.1,13.1,0,0,1-.44,3.75s0,0-.07.05c-1.54.1-3.07.39-4.6.52-5.16.75-10.33,1.41-15.49,2.14-3.65.52-3.64.38-4-3.31A118.48,118.48,0,0,0,246,195.79a3.42,3.42,0,0,0-.47-1.33,6.7,6.7,0,0,0-.11-1.42,4.3,4.3,0,0,1,.65-3.2,56.58,56.58,0,0,0,5-11.53,46.51,46.51,0,0,0,2.47-13.62,4.19,4.19,0,0,0,.26-1.85,50.57,50.57,0,0,0-3-19,37,37,0,0,0-5.16-9.93l-.21-.11a1.59,1.59,0,0,0,.3-.06c-.44-2.37-2.3-3.8-3.78-5.43a6.36,6.36,0,0,1-1.83-4.19c-.14-3.7-.56-7.37-.88-11-.21-2.36,0-4.78-.81-7.08a10.13,10.13,0,0,1-.27-3.34,5.67,5.67,0,0,0-.16-1.22,9.76,9.76,0,0,1-.21-3,5.18,5.18,0,0,0-.22-1.52,6.17,6.17,0,0,0-.38-.72c-.18-4.26-.62-8.49-1-12.79l-11.32,2.92a50.5,50.5,0,0,1-.32-6.75,1.48,1.48,0,0,0,.37-1c-.34-2.16.79-3.23,2.73-3.71a5.57,5.57,0,0,1,1.09-.55l.45-.17a6.29,6.29,0,0,1,.88-.22,2.2,2.2,0,0,0,.44-.12c.27-.1.55-.19.83-.27l.42-.13c.27-.1.55-.19.83-.27A3.45,3.45,0,0,0,233,73a6.17,6.17,0,0,1,.85-.2,3.45,3.45,0,0,0,.43-.12,6,6,0,0,1,.82-.27l.42-.13c.28-.11.55-.19.83-.27l.42-.14a5,5,0,0,1,.85-.2,3,3,0,0,0,.43-.12,8.09,8.09,0,0,1,.83-.28,2.13,2.13,0,0,0,.43-.13,7.66,7.66,0,0,1,.85-.27,3.73,3.73,0,0,0,.44-.14c.28-.09.59-.15.88-.26a1.12,1.12,0,0,0,.2-.18l.13.08a4.69,4.69,0,0,0,2.74-.36l18-5.35c1.87-.56,2-.45,2.18,1.47a55.38,55.38,0,0,1,.38,6.17c0,1.14.1,1.26.82,1.44,0,.11,0,.23,0,.34a3.12,3.12,0,0,0-.52,2.14,57.49,57.49,0,0,0,.34,6c.27,7.08.85,14.14,1.19,21.22,0,.69-.13,1.57.9,1.8.3-.4.61-.8.9-1.2l20.58-28.92a7.74,7.74,0,0,0,1.21-1.88,1.91,1.91,0,0,0,.79-1.12.44.44,0,0,0,.32-.43l-.31.41h0a1.14,1.14,0,0,1,.32-.41h0a.86.86,0,0,0,.48-.67.49.49,0,0,0,.31-.44.5.5,0,0,0-.32.43h0a.64.64,0,0,1,.34-.43c.1-.14.2-.28.31-.41l.17,0a.6.6,0,0,1-.08-.21.66.66,0,0,0,.37-.54,2.45,2.45,0,0,1,.31-.41v0a.83.83,0,0,0,.46-.64c1.51-.5,2-2,2.81-3.1s1.45-1.16,2.4-.3c.52.47.94,1.15,1.79,1.09,0,0,0,.1,0,.15l.15.2c.1.12.21.23.32.34l.17.15a4,4,0,0,0,.3.28,1.85,1.85,0,0,0,.14.14l.27.27.14.13.25.26.13.12a4.51,4.51,0,0,1,.38.38,3.07,3.07,0,0,0,.25.26l.13.13.26.25a1.54,1.54,0,0,0,.12.13c.09.09.17.18.26.26l.13.14.27.27.13.14c.09.09.18.19.28.28l.14.14c.11.1.21.2.33.29a3.27,3.27,0,0,0,.36.25,3.7,3.7,0,0,1,.95,1.06,77.35,77.35,0,0,0,6.75,6.8c4.07,3.72,7.94,7.64,12,11.36.77.7.82,1.27.09,2-.43.46-1.1.91-.87,1.66l-.07,0a5.25,5.25,0,0,0-3.27,3.11c-.22.29-.44.6-.69.87q-17.28,18.22-34.58,36.44a.47.47,0,0,0,.48.38.3.3,0,0,0,.37.19,3.08,3.08,0,0,0,1.51.55.3.3,0,0,0,.37.19l.67.22a2,2,0,0,1,.48.24l.38.1a.29.29,0,0,0,.36.2l1.18.46a.29.29,0,0,1,.36.1.28.28,0,0,0,.34.18l-.34-.18h0a.54.54,0,0,0,.34.18,3.36,3.36,0,0,0,1.55.57.76.76,0,0,0,.74.31l.14.11h.17a.86.86,0,0,0,.83.33l.08.09.11,0a.55.55,0,0,0,.56.27l.14.1.17,0a.37.37,0,0,0,.43.23c.69.29,1.38.61,2.08.89q11.64,4.62,23.28,9.2a4.58,4.58,0,0,1,2.61,2.22,42.13,42.13,0,0,0,5.65,8,22.49,22.49,0,0,0,3.37,3.46l.11.19a4.59,4.59,0,0,0,.33.44c.06.07.11.14.18.21s.22.3.34.44l.16.23a5.85,5.85,0,0,0,.34.48A49.07,49.07,0,0,0,350,174a63.41,63.41,0,0,0,18.4,5.22c1.06.14,2,.32,1.94,1.74-.14,8.49.26,17-.23,25.47h0C368.61,204.71,366.54,204.08,364.46,203.43Zm44.28-44.73A99.51,99.51,0,0,1,395,163.39c-12.64,3.39-25.17,3.71-37.56-1.16-2.17-.85-4.1-2.2-6.36-2.84l-.37.17c-.47-.33-.94-.69-1.42-1a38.89,38.89,0,0,1-16-20.66c-.51-1.54-.89-3.12-1.33-4.68-.15-1.18-.3-2.36-.46-3.54a43.81,43.81,0,0,1,4.61-27A72.88,72.88,0,0,1,341,95.24c1-.1,1.55-.94,2.26-1.52a60.93,60.93,0,0,1,4.5-4.3C359.67,80,373.25,76,388.33,76.7a46.08,46.08,0,0,1,27.34,10.43c.67.54,1.31,1.27,2.31,1.2l0,.17a1,1,0,0,0,.21.28,1.42,1.42,0,0,0,.12.13l.24.24a1.36,1.36,0,0,0,.12.12l.24.25.12.12.25.25.12.12a3,3,0,0,0,.25.25l.13.13.25.25s.12.13.12.12a2,2,0,0,0,.25.25l.13.13.25.25.12.13.26.25.12.12.25.25.12.13c.08.09.14.18.21.27a1,1,0,0,1,.12.32,1.12,1.12,0,0,1-.18.54c-1.59,2.24-3.9,3.85-5.27,6.27L413.79,103h0a9.37,9.37,0,0,0-2.2,2.33,11.55,11.55,0,0,0-1,.87Q398,119.54,385.46,133c-1.24,1.32-2.44,2.69-3.66,4a2.42,2.42,0,0,0,2.54.82,48.86,48.86,0,0,0,7.8-1.21c4.3-1.19,8.58-2.43,11.89-5.7l0,0a2.61,2.61,0,0,0,.44-.37,7.85,7.85,0,0,1,1.88-1.51c2.09-.91,3.39-2.69,4.8-4.36.75-.88,1.47-1.08,2.32-.13,1.58,1.78,3.53,3.17,5.25,4.8,1.12,1.06,2.12,2.39,3.79,2.71a.72.72,0,0,0,0,.25c0,.08.08.16.13.24s.2.29.31.43a3.38,3.38,0,0,0,.53.54c.2.16.38.33.57.5,2.22,2.36,4.74,4.41,7.15,6.58,1.65,1.48,1.64,1.33.22,3s-3.33,2.44-4.34,4.33a64.51,64.51,0,0,1-13.66,9.16c-.67.34-1.32.71-2,1.07-.25,0-.5,0-.75-.06A7.13,7.13,0,0,0,408.74,158.7Zm138,52.38a1.52,1.52,0,0,1-.66.15,3.47,3.47,0,0,1-1.48-.39c-1.81-.63-3.75-.52-5.58-1-7.36-1.06-14.7-2.27-22.06-3.37-2.61-.39-2.6-.43-3.06-3.14a10.07,10.07,0,0,0-.72-3.1,3.23,3.23,0,0,0-.48-.57,10.52,10.52,0,0,0-.07-1.12c-1.1-7.29-2.17-14.6-3.32-21.89-.48-3-.75-6.08-1.48-9.07a68.5,68.5,0,0,0-.92-6.84c-.55-4.14-1.36-8.24-1.77-12.41-.17-.19-.22-.68-.64-.26l0-.06a4.52,4.52,0,0,0-.95,1.59c-2.2,5.36-4.16,10.83-6.33,16.21a1.78,1.78,0,0,0-.12,1.57c-1.32,1.31-1.58,3.14-2.27,4.75-.88,2.06-1.64,4.18-2.55,6.44-1-1.24-1.13-2.61-2.18-3.39l-.84-1.64c-1-2-1.74-4.08-2.91-6a9.06,9.06,0,0,0-.29-.88q-6-13-12.08-26a3.41,3.41,0,0,0-.78-1.27,6.56,6.56,0,0,0-1,2.55c-1.26,8.22-2.62,16.43-3.86,24.66a2.51,2.51,0,0,0,.16,1.92l-.06,0a4.58,4.58,0,0,0-.78,2.28q-1,6.56-2.08,13.13c-.15.91-.23,2.05-1.62,1.7a20.51,20.51,0,0,0-4.06-.24c-3.92-.48-7.79-1.29-11.68-2-4.26-.73-8.51-1.5-12.78-2.22-.7-.11-1.22-.23-1.12-1.09,0,0,0-.06,0-.09l.08.06c.87-.36.78-1.22.91-1.92q.9-4.89,1.64-9.82c.42-2.84,1.23-5.62,1.18-8.53a3.41,3.41,0,0,0-.24-.64,19.47,19.47,0,0,0,.53-2.84,4.24,4.24,0,0,1,1.3-2.6c4-4,7.91-8.06,11.87-12.07.6-.61.79-1,0-1.63-3-2.62-6-5.3-9-8,0-.32,0-.64,0-.94.8-4.74,1.63-9.47,2.39-14.22.48-3,1.16-5.87,1.36-8.87a4.71,4.71,0,0,0,.41-2.34h0a23.64,23.64,0,0,0,.87-4.57c.47-3,1.18-5.89,1.37-8.89a2.44,2.44,0,0,0,.3-1.67c0-.2.05-.4.08-.6a2.41,2.41,0,0,0,.3-1.66l.12-.73a7.54,7.54,0,0,0,.27-.89q1-5.62,2-11.26a8,8,0,0,0,1-3.2c.41-2.47.53-2.58,3-2.59,9.21,0,18.43,0,27.65,0,.89,0,1,.56,1,1.27a52.41,52.41,0,0,0,1.12,6.82,1.38,1.38,0,0,0,.75,1.22l.13,0s0,0,0,.06a29.27,29.27,0,0,0,.83,5.18q2.41,13.38,4.9,26.76a1.13,1.13,0,0,0,.37,1.25,3.89,3.89,0,0,0,.34-2c.13-.62.27-1.23.38-1.84,1.23-6.91,2.5-13.8,3.67-20.72a73.29,73.29,0,0,0,1.28-8,33.84,33.84,0,0,0,1.14-6.39,3.25,3.25,0,0,0,.35-2,.17.17,0,0,0,0-.26,2.3,2.3,0,0,0,.31-1.62c0-.2.05-.39.08-.58s.22-.38.34-.56c0-.38,0-.75,0-1.12a.26.26,0,0,0,0-.33c0-.14,0-.2,0-.31a2.58,2.58,0,0,1,.48.18,2.6,2.6,0,0,0,.49-1.2c.65-2.69.65-2.69,3.51-2.69h15.42c3.37,0,3.25.06,3.72,2.85a2.2,2.2,0,0,0,.44,1,1,1,0,0,0,.44,0l0,.28a2.73,2.73,0,0,0-.32,2.34c1.22,7.69,2.35,15.41,3.59,23.1.08.49.06,1.06.43,1.42,0,0,0,.07,0,.12a15.32,15.32,0,0,0,.2,2.43q1.85,12.27,3.79,24.53a4.73,4.73,0,0,1-1,4.21,13.71,13.71,0,0,0-2.3,3.19l-.35.78c0,.08-.1.15-.14.23s-.22.29-.32.44l-.15.22a1.37,1.37,0,0,0-.16.52,1.46,1.46,0,0,0,.07.19,6.43,6.43,0,0,0-.57.72,58,58,0,0,0-6.63,14.07,46.2,46.2,0,0,0-2.46,16.07,43.83,43.83,0,0,0,4.7,20.85,35,35,0,0,0,6.59,9.75h0a.86.86,0,0,1,.38.44,37.7,37.7,0,0,0,13,9.92c1.85.88,3.24,1.76,3.07,4a.53.53,0,0,0,.13.26,1.13,1.13,0,0,0-.11.22c0,.66.12,1.32.13,2a3.54,3.54,0,0,0,.14.79C546.85,210.18,547.15,210.64,546.72,211.08Zm26.89-16.14c-9.33,1.68-18.34,1-26.77-3.79a3.42,3.42,0,0,0-1.58-.56l-.33,0a5.27,5.27,0,0,0-.51-.43,33.24,33.24,0,0,1-12.48-16.7,66,66,0,0,1-1.87-7.83c0-.44,0-.88,0-1.31a43.4,43.4,0,0,1,5.22-23.12,73.26,73.26,0,0,1,6.09-9.2.85.85,0,0,0,.53-.63h0a.63.63,0,0,0,.39-.42.54.54,0,0,0-.3.15.71.71,0,0,1,.3-.15,1.13,1.13,0,0,0,.61-.64h0a1.08,1.08,0,0,0,.56-.07c1.87-1.39,3.37-3.17,5.18-4.64,10.4-8.39,22.09-12.55,35.53-10.79A31.85,31.85,0,0,1,603,123.94c1.79,1.77,3.18,3.88,5.06,5.55a2.44,2.44,0,0,1,.24.1h0c4.94,8.16,6.12,17,4.48,26.24a86,86,0,0,1-2.4,8.66c-.18.33-.39.64-.54,1a50.41,50.41,0,0,1-8.37,13.33,25.33,25.33,0,0,1-4.25,4.22,36.56,36.56,0,0,1-6.06,5c-1.92,1.38-4.08,2.36-6,3.65h0s0,0,0,0h0s0,0,0,0l0,0h0c-2.62,1.1-5.27,2.08-7.95,3-.45,0-.9,0-1.35,0A14.32,14.32,0,0,0,573.61,194.94Zm18.56,19.35c.14,0,.27,0,.4,0A.92.92,0,0,1,592.17,214.29ZM664,239c-.65,1-.29,2.8-1.64,3.07-1.19.25-2.47-.59-3.71-.95-2.2-.72-4.44-1.31-6.64-2-3.87-1.25-7.86-2.09-11.66-3.59a3.76,3.76,0,0,0-.49-.55c0-.32,0-.65,0-1-.13-3-.24-6-.35-9.08,0-.69.06-1.37,0-2.06-.12-5.5-.26-11-.39-16.51-.08-3.87,0-7.75-.39-11.62a2,2,0,0,0,0-1.13c0-.25,0-.5,0-.75,0-.7.06-1.39,0-2.08q-.4-17.82-.82-35.64c-.5-.66.44-1.74-.64-2.24-.13.75-.27,1.48-.4,2.22-1.86,10.49-3.74,21-5.55,31.46a74.74,74.74,0,0,0-1.31,8.15,3.65,3.65,0,0,0-.27.69c-.64,3.55-1.32,7.11-1.88,10.68-.48,3-1.17,5.92-1.49,8.93a2.76,2.76,0,0,0-.45.57c-.45.79-1.06.51-1.66.25a4.24,4.24,0,0,0-2.91-.29,14,14,0,0,1-2.41-.25c-3.08-.42-6.11-1.15-9.22-1.34a2.23,2.23,0,0,0-1.07-.32c-2.35-.37-4.7-.78-7.06-1.11-.75-.11-.94-.41-.85-1.12.2-1.49.36-3,.46-4.49.26-3.88.94-7.73,1-11.63h0a5.5,5.5,0,0,1,2.23-3.65,61.46,61.46,0,0,0,14.21-19,27.58,27.58,0,0,0,2.43-6.08.9.9,0,0,0,.31-.88.17.17,0,0,0,.08-.26c.27-.21.29-.53.38-.83A51.15,51.15,0,0,0,624,141.76a38.63,38.63,0,0,0-3.58-12.37h0c.5-1.17-.26-2.09-.75-3a41.54,41.54,0,0,0-7.83-10.55,3.43,3.43,0,0,1-1.15-3.38,27.81,27.81,0,0,0,.32-5.07,14,14,0,0,0-.13-1.5c0-.7,0-1.39,0-2.09a0,0,0,0,1,0,0h0v0h0v0l0,0h0a16.75,16.75,0,0,0,.49-4c.28-2.12.4-4.25.63-6.37.08-.79,0-1.27-1-1.48-2.8-.66-5.59-1.42-8.38-2.14,0-.61-.11-1.23-.16-1.84a5,5,0,0,0,.1-1.64h0a1.52,1.52,0,0,0,.79-1.36c.09-1.26,0-2.51,0-3.77,0-2.63.28-2.83,2.87-2.3,8.79,1.79,17.61,3.44,26.38,5.32.9.19,1.85.63,2.77.09,0,0,0,0,.07,0a2.3,2.3,0,0,0,.5.18,9.46,9.46,0,0,1,1.5.29,4.42,4.42,0,0,0,.5.1,7.16,7.16,0,0,1,1.44.27,2.47,2.47,0,0,0,.47.11,7.57,7.57,0,0,1,1.42.27,2.47,2.47,0,0,0,.47.11,6.88,6.88,0,0,1,1.41.27,3.56,3.56,0,0,0,.47.1,7,7,0,0,1,1.38.26,4.35,4.35,0,0,0,.46.11,2,2,0,0,1,1,.29,2.69,2.69,0,0,1,.26.33,4.69,4.69,0,0,1,.25,1.28,2.46,2.46,0,0,0,.11.45,4.8,4.8,0,0,1,.21,1.13,3.36,3.36,0,0,0,.15.7,5.81,5.81,0,0,1,.23,1.16,4.23,4.23,0,0,0,.13.71,4.68,4.68,0,0,1,.24,1.17,4.25,4.25,0,0,0,.14.71,5.87,5.87,0,0,1,.28,1.17,4.21,4.21,0,0,0,.12.48,4.31,4.31,0,0,1,.16,1.24,5.11,5.11,0,0,0,.46,2.31,4,4,0,0,1,.33,1.21,4.62,4.62,0,0,0,.15.74,5.63,5.63,0,0,1,.25,1.22,3.82,3.82,0,0,0,.14.75c.1.35.18.7.29,1a1.37,1.37,0,0,0,.41.59,2.73,2.73,0,0,0,0,.57q4.71,22.36,9.45,44.73c.39,1.82.48,3.73,1.37,5.42.13-.55.27-1.09.41-1.64Q667,134,671.86,113.9c.69-2.89,1.54-5.75,2-8.7h.07c1.34-1,1-2.68,1.47-4,0-.28.07-.55.1-.82s.11-.52.18-.77.18-.69.28-1,.19-.52.27-.79.17-.47.24-.71c.77-2.67.76-2.64,3.5-2.07,5.4,1.14,10.77,2.42,16.18,3.54,3.12.65,6.17,1.71,9.4,1.83.12,0,.25,0,.37-.07l0,0c.46.15,1,.16,1.4.32a3.69,3.69,0,0,0,.45.11,4.83,4.83,0,0,1,1.06.26l.37.2c.36.35.08.66-.06,1-2.78,7.84-5.13,15.83-7.86,23.7a1.52,1.52,0,0,0,.09,1.6l.07.08-.36,0a2.79,2.79,0,0,0-.89,1.6c-2.82,8.36-5.6,16.72-8.26,25.13a3.15,3.15,0,0,0-.19,2l0,0c-.77.3-.85,1.08-1.07,1.72-2.85,8.44-5.64,16.89-8.45,25.35-.25.75-.66,1.53-.13,2.34h0l-.16.13a4.73,4.73,0,0,0-.35.8l-.15.4a6,6,0,0,1-.26.82,2.78,2.78,0,0,0-.16.4c-.09.29-.2.57-.31.85s-.12.3-.17.45a6,6,0,0,1-.48.9c-2.73,7.34-5,14.83-7.5,22.23a1.54,1.54,0,0,0,.13,1.66h0l-.18.13a3.37,3.37,0,0,0-.45.78c0,.15-.09.3-.13.44a3.29,3.29,0,0,1-.59,1.07c-2.61,6.64-4.39,13.56-6.74,20.3a1.57,1.57,0,0,0,0,1.24A2.06,2.06,0,0,0,664,239Z"/><path class="cls-3" d="M51.55,187.23c0-.34,0-.64-.36-.8A.82.82,0,0,0,51.55,187.23Z"/><path class="cls-3" d="M143.31,210.53a.67.67,0,0,0-.45-.69A.79.79,0,0,0,143.31,210.53Z"/><path class="cls-3" d="M12.35,137.75a.45.45,0,0,0,.3.48A.51.51,0,0,0,12.35,137.75Z"/><path class="cls-3" d="M6.3,127.56a.48.48,0,0,0,.31.48A.47.47,0,0,0,6.3,127.56Z"/><path class="cls-3" d="M318.43,66h0s0,0,0,0Z"/><path class="cls-3" d="M377.92,16.14c.35-.05.46-.3.49-.61a.82.82,0,0,0-.52.63,0,0,0,0,0,0,0,.48.48,0,0,0-.35.41A.43.43,0,0,0,377.92,16.14Z"/><path class="cls-3" d="M661.38,83.3a.89.89,0,0,0-.78.43C661,83.76,661.26,83.7,661.38,83.3Z"/><path class="cls-3" d="M292.36,70.6l0,0h0Z"/><path class="cls-3" d="M185.52,164.55h0l0,0Z"/><path class="cls-3" d="M221.85,143.84c-.1,3.17-.64,6.18-2.93,8.63-1.07,1.15-2.48,1.89-3.51,3.07-.53.59-1.41.52-2,1.05-.93.15-1.85.32-2.78.43a16,16,0,0,1-8.76-1.58,15.31,15.31,0,0,1-5.42-6,.87.87,0,0,0-.32-.82.23.23,0,0,0-.07-.31,21.6,21.6,0,0,1-.31-4.47,2.6,2.6,0,0,0,.36-1.56l.09-.09,0-.12c.25-.43.5-.86.76-1.28,2.24-2.8,4.68-5.32,8.34-6.26.26-.07.72-.23.71-.6h1.06c-2-1.22-4-.75-6.11-.4a11.14,11.14,0,0,0-2.23.27,24,24,0,0,0-11.6,6.19c-.26.74-1.08,1.09-1.28,1.87a12.55,12.55,0,0,0-3,5.65h0a.77.77,0,0,0-.27.79,14,14,0,0,0-.42,7.93,15.25,15.25,0,0,0,3.05,7.89v0a3.91,3.91,0,0,1,.3.41.61.61,0,0,1,.34.44h0a0,0,0,0,1,0,0,.5.5,0,0,0-.34-.43.52.52,0,0,0,.32.44.8.8,0,0,0,.5.65v0a4.47,4.47,0,0,1,.35.41v0a1,1,0,0,1,.37.42l0,0a.81.81,0,0,1,.4.45,12.93,12.93,0,0,0,3.65,3.18,23.13,23.13,0,0,0,26.71-1.27c.44-.35.9-.66,1.35-1,.87-1.21,2.11-2.13,2.71-3.54a10.54,10.54,0,0,0,2.26-4.5.91.91,0,0,0,.3-.89.18.18,0,0,0,.07-.27,17.87,17.87,0,0,0-2-15.19C222.15,143.34,222,143.56,221.85,143.84Z"/><path class="cls-3" d="M394.17,103.67c1.06-1.18,1.08-1.23-.15-2.36-7.06-6.47-15.16-8.19-24.26-5.25a24.46,24.46,0,0,0-9.51,6.25c-2.93,2.17-4.33,5.27-5.23,8.67a.67.67,0,0,0,.13.5,3.29,3.29,0,0,0-.95,2.18,23,23,0,0,0,5.9,20.63c.82.9,1.57,2,2.91,2.25,1.41.81,1.42.81,2.52-.44,4.28-4.84,8.58-9.67,12.84-14.53,2.92-3.35,6-6.59,8.76-10.07C389.62,109,391.82,106.27,394.17,103.67Zm-21.75,11.85c-2.37,2.59-4.62,5.28-6.95,7.89-.7.79-1.18.84-1.53-.27a13.79,13.79,0,0,1-.58-7.94,14.32,14.32,0,0,0,.66-3.12c.39-.12.56-.51.74-.85a15.15,15.15,0,0,1,2.37-3.14,14.26,14.26,0,0,1,14.59-4c.2.11.37.24.29.51a1.74,1.74,0,0,1-.11.18l-.28.36a3.47,3.47,0,0,0-.26.37,7.44,7.44,0,0,1-1.1,1.28c-.05.07-.11.12-.16.19a2,2,0,0,0-.28.41c0,.08-.05.16-.07.24h0a1.82,1.82,0,0,0-.3.11C376.84,110.09,374.77,112.93,372.42,115.52Z"/><path class="cls-3" d="M290.07,136.13l-.48-.24A.46.46,0,0,0,290.07,136.13Z"/><path class="cls-3" d="M99.81,117.39c.14.4.34.76.82.82a3.4,3.4,0,0,0,.25,1.25c1.42,4.66,2.8,9.34,4.25,14,.76,2.47,1.44,5,2.37,7.38a2.22,2.22,0,0,0-.13.68c.35,3.27,1.79,6.23,2.64,9.36.56,2,1.18,4.08,1.89,6.09.46,1.27,1.17,1.51,2.23.66a5.31,5.31,0,0,0,.85-.72c.71-.52,1.4-1.05,2.11-1.55A65.64,65.64,0,0,0,127.23,147a25.27,25.27,0,0,0,4.81-6.43,5,5,0,0,0,.45-.58,26.31,26.31,0,0,0,2.15-20,10.81,10.81,0,0,0-2.23-4.48,16.42,16.42,0,0,0-7-6.33c-5.46-2.83-11.24-3.27-17.22-2.15a45.69,45.69,0,0,0-9.38,3.25c-.86.36-.78,1.06-.61,1.75C98.63,113.81,99.19,115.61,99.81,117.39Zm30.89,21.09a1.68,1.68,0,0,0-.52.05c.08-.14.2-.25.55-.15A.54.54,0,0,0,130.7,138.48ZM115,116.88c1.6.19,3.15.8,4.79.7l.18,0a4,4,0,0,0,.48.32l.34.19.35.17.36.19.34.18.16.12.29.25.14.14.27.28.13.14.28.29.13.15.27.32.12.17c.08.13.15.26.22.39s0,.15.08.22.11.32.17.47a17.68,17.68,0,0,1,.1,11.45c-.11.32-.19.65-.29,1-.06.15-.12.29-.17.44a5.59,5.59,0,0,1-.3.6l-.21.4a5.2,5.2,0,0,1-.7,1.15c-.32.46-.82.85-.48,1.51h0a1.55,1.55,0,0,0-.23.07l-.21.14c-.14.11-.27.21-.39.32l-.2.14-.42.26a3.81,3.81,0,0,0-.41.29c-.63.47-1.06,1.2-1.83,1.55-.56-.85-.57-2-1.42-2.49.39-.67.07-1.34-.12-2-1.56-5.32-3.32-10.58-4.84-15.9-.44-.9-.32-2.09-1.37-2.65A5.61,5.61,0,0,1,115,116.88Z"/><path class="cls-3" d="M590.87,155.91l.73-1.18a12.74,12.74,0,0,0,3.07-5.52.92.92,0,0,0,.31-.91.15.15,0,0,0,.06-.24,3.39,3.39,0,0,0,.31-.67,18.67,18.67,0,0,0-1.91-14.15c-.36-.08-.51.15-.65.42a2.07,2.07,0,0,0-.11.55,11,11,0,0,1-5.24,9.78,4.07,4.07,0,0,0-1.07,1,13.5,13.5,0,0,1-9.58,1.19,14.68,14.68,0,0,1-7.09-3.9,19.62,19.62,0,0,1-2.66-4.58,14.05,14.05,0,0,1,.08-6.32l.73-1.22c2.42-3.1,5.18-5.71,9.26-6.44.48-.08,1-.35.83-1a32.6,32.6,0,0,0-7.71.07,23.51,23.51,0,0,0-12.82,6.66c-.21.35-.41.7-.61,1.05a14.32,14.32,0,0,0-3.68,7.22,4.53,4.53,0,0,0-.45,2.51h0a14.33,14.33,0,0,0,.8,8.06h0a1.33,1.33,0,0,0,.39,1.12h0a.84.84,0,0,0,.34.83,11.06,11.06,0,0,0,2.68,4.45h0a1.74,1.74,0,0,1,.35.42l0,0a.77.77,0,0,1,.38.43l0,0a.65.65,0,0,1,.42.46,8.46,8.46,0,0,0,.7.86,23,23,0,0,0,25.19,4.06A27.23,27.23,0,0,0,590.87,155.91Z"/><path class="cls-3" d="M585.15,191.66v0h0Z"/><path class="cls-4" d="M222.11,143.81l.4-.39c-.12-.27-.25-.54-.37-.82C221.57,143,221.81,143.4,222.11,143.81Z"/><path class="cls-4" d="M637.91,150.65c-.06-.17-.13-.19-.22,0h0c0,.77-.61,1.43-.38,2.24.72.59,0,1.6.64,2.23A21.46,21.46,0,0,0,637.91,150.65Z"/><path class="cls-4" d="M592.74,132.48c0,.4,0,.82.32,1.12l.38-.36A.76.76,0,0,0,592.74,132.48Z"/><path class="cls-4" d="M382.54,103.86h0a13.87,13.87,0,0,0-8.68-.34c-2.8.8-5.4,2-7.2,4.48.85-.2,1.7-.42,2.55-.6a17.21,17.21,0,0,1,10.31.53c.11-.09.21-.2.31-.3l.07-.07a3.41,3.41,0,0,1,.37-.39,2.83,2.83,0,0,0,1.52-1.87.38.38,0,0,0,.38-.39c.8-.44.84-.54.37-1Z"/><path class="cls-4" d="M124,120.39l0,0a4.72,4.72,0,0,0-.37-.41h0c-.13-.12-.25-.25-.37-.38h0c-.13-.11-.25-.24-.38-.37h0a4.73,4.73,0,0,0-.4-.37l0,0a1.48,1.48,0,0,0-.41-.38l0,0c-.17-.28-.53-.21-.74-.42s-.55-.15-.73-.39h0c-.21-.21-.56-.13-.76-.36h0c-.72-.19-1.43-.39-2.15-.56a14.84,14.84,0,0,0-6.43-.25c-.78.16-.85.54-.76,1.16.35.88.68,1.76,1,2.63a11.31,11.31,0,0,1,3.85.84c2.57,1,4.68,2.64,5.38,5.4a18.15,18.15,0,0,1-.19,10.77c-.85,1.43-.85,1.43.09,2a2,2,0,0,0,.35-.06,2.43,2.43,0,0,1,.33-.38h0a3.42,3.42,0,0,0,.36-.4h0a1.1,1.1,0,0,0,.38-.42l0,0,.84-1.45a1.89,1.89,0,0,0,.74-1.49c.38-.12.42-.42.39-.75.4-.17.39-.53.4-.88h0a5,5,0,0,0,.71-1.73c.76-3.69.84-7.33-.78-10.85A1,1,0,0,0,124,120.39Z"/></g></g></svg>