<svg xmlns="http://www.w3.org/2000/svg" viewBox="0 0 377.23 412.89"><defs><style>.cls-1{fill:#e4646d;}.cls-1,.cls-5{stroke:#133434;stroke-miterlimit:10;}.cls-1,.cls-2,.cls-3,.cls-5,.cls-6{fill-rule:evenodd;}.cls-2,.cls-4{fill:#fff;}.cls-3{fill:#f8e5b4;}.cls-5{fill:#f08387;}.cls-6{fill:#13110c;}</style></defs><title>Element 16</title><g id="Ebene_2" data-name="Ebene 2"><g id="Objects"><path class="cls-1" d="M215.58,400.48c-21.22,9.44-47.51,14.3-71.21,4.82-30.14-12.07-39.83-10.95-52.2-18.74-4.64-2.93-12-5-17.58-12.58-14.43-19.58-39-39.23-40-56.65-.88-15.35-2.55-19.86-2.55-19.86L130,299.91a119,119,0,0,0,33.67,15.34c6.66,1.9,26.72-2,34.26-5.29,9.66-4.18,12.41-11.67,15.12-10h97.32s-5.77,43.23-38.09,69.78C265,375.66,258.92,381.19,215.58,400.48Z"/><polygon class="cls-2" points="131.22 279.68 33.88 279.68 28.59 279.91 31.1 297.57 125.92 297.3 147.16 311.84 168.98 315.25 191.73 312.71 214.07 295.9 312.8 296.65 311.55 279.68 213.96 279.91 201.22 295.06 208.28 279.91 165.96 279.68 131.22 279.68"/><polygon class="cls-3" points="272.26 265.43 282.4 279.57 156.36 279.91 58.93 279.91 83.73 273.95 93.15 235.73 73.49 202.4 89.65 114.88 79.03 108.94 44.45 72.58 4.43 4.68 42.08 13.26 86.79 41.66 125.01 86.92 182.52 77.46 221.44 88.28 269.63 62.55 298.11 53.48 342.12 48.08 354.65 77.46 371.73 81.15 373.28 105.09 357.41 169.81 280.1 194.43 294.98 211.3 316.76 240.27 272.26 265.43"/><ellipse class="cls-4" cx="117" cy="166.72" rx="7.74" ry="7.28"/><ellipse class="cls-4" cx="218.66" cy="166.85" rx="7.74" ry="7.28"/><path class="cls-5" d="M117.53,216.93c0,11.89-10.27,21.53-23,21.53-6.93,0-7.85-2.7-11.25-8.85-2.82-5.09-8.74-13.15-8.74-18.54,0-11.88,7.32-15.66,20-15.66S117.53,205.05,117.53,216.93Z"/><path class="cls-5" d="M248.63,195.16c11.89,0,20.86,4.6,20.86,17.27,0,6.93-6,12.89-12.16,16.29-5.08,2.82-9.18,9.38-14.56,9.38-11.89,0-15.66-7.31-15.66-20S236.74,195.16,248.63,195.16Z"/><path class="cls-6" d="M171.45,313.92h.68a50.73,50.73,0,0,0,39-18.08h97.51a130.68,130.68,0,0,0,2.93-16.16h9.16c-8.48,74.91-72.09,133.21-149.26,133.21A150.12,150.12,0,0,1,22.31,279.68h9.15a130.36,130.36,0,0,0,2.82,16.16h97.51a51,51,0,0,0,39.09,18.08Zm0,89.94A141.14,141.14,0,0,0,307.6,299.91H213A55.7,55.7,0,0,1,172.13,318h-1.25A55.34,55.34,0,0,1,130,299.91H35.3a141.24,141.24,0,0,0,136.15,104Z"/><path class="cls-6" d="M26.82,275.16H316.19a4.54,4.54,0,0,1,4.52,4.52h0a4.53,4.53,0,0,1-4.52,4.52H26.82a4.53,4.53,0,0,1-4.51-4.52h0a4.53,4.53,0,0,1,4.51-4.52Z"/><path class="cls-6" d="M217,275.16a47.19,47.19,0,0,1-91.07,0h9.5a38.09,38.09,0,0,0,72.08,0Z"/><path class="cls-6" d="M76.09,168.16c1.13-6.78.79-12.77.45-19.66-.9-15.93,3.16-28.81,11.07-39.54,5.09-2.94,10.51-2.49,13.79-2-11,10.51-16.84,23.39-15.82,41.13.34,6.33.9,13.11-.57,21.69-2.71,15.26-7.91,30.4-3.73,41.7C88.74,232,108,245.9,131.23,253.13c-27.12,7.34-49.83-14.69-58.53-38.64-5.2-14.24.9-31.86,3.39-46.33Zm135.58,85c23.39-7.23,42.6-21.13,50.06-41.69,4.06-11.3-1.13-26.44-3.73-41.7-1.47-8.58-1-15.36-.68-21.69,1.13-20.11-6.55-34-20.34-45.19.79-1.47,12.2-8,23.5,14.57,4.41,8.93,6.56,19.1,5.88,31.07-.34,6.89-.68,12.88.56,19.66,2.49,14.47,8.48,32.09,3.28,46.33-8.7,23.95-31.41,46-58.53,38.64ZM223.2,93.7c-25.65-14.23-77.85-14.23-103.5,0a13.83,13.83,0,0,1-.45-9.94c29.6-13.9,82.25-13.11,109.26,2.49.9.56,1.58,1,2.48,1.47-2.37,1.69-5.19,3.84-7.79,6Z"/><path class="cls-6" d="M89.08,118.45c-32.77-15.82-61.24-52.09-77.4-78C6.94,32.92-4.59,13.37,2,4.44,9-5,29.76,3.09,38,6.59c17.29,7.23,34,18.3,48.7,29.83A180.15,180.15,0,0,1,129.3,83.08c.57.91,1,1.81,1.59,2.6A29.57,29.57,0,0,0,125,86.92a26.31,26.31,0,0,0-3.16,1.25c-8-12.77-20.34-28.7-40.68-44.63C62.3,28.85,46.48,19.92,34.51,15,19.37,8.62,10.44,8.28,9.2,9.87s1.58,12.2,10.17,25.76C34.85,60.37,63.09,96.53,94.5,111q-3,3.9-5.42,7.46Z"/><path class="cls-6" d="M217.66,86.59a116,116,0,0,1,9.27-7A178.81,178.81,0,0,1,284.21,53c18.08-5,37.74-8.81,56.49-8.7,8.93,0,31.19.56,34,12,1.47,6-2.93,11.53-6.66,15.6a105.12,105.12,0,0,1-16.16,13.89c-22.6,15.94-57.74,35.71-91.07,40.79a38.67,38.67,0,0,0-3.27-8.58c32.2-4.41,67.34-24.3,89-39.66,13.22-9.27,19.89-17.74,19.32-19.78s-8.81-5.19-25.2-5.19c-13.1,0-30.95,2-54.12,8.36C257.88,69.52,239,81.5,226.7,90.88c-3-1.58-6.1-3-9-4.29Z"/><path class="cls-6" d="M81.28,228.72a137.69,137.69,0,0,1,11.87,7c2.15,8.59,2.48,23.61-9.27,44l-10.73.23c6.67-10.17,12.43-22.94,12.09-35.37-.23-6.66-2.15-10.28-4-15.82Z"/><path class="cls-6" d="M261.73,228.72a121.72,121.72,0,0,0-12,7c-2,8.59-2.49,23.61,9.26,44l10.74.23c-6.67-10.17-12.43-22.94-12.09-35.37.22-6.66,2.15-10.28,4.07-15.82Z"/><path class="cls-6" d="M223.08,157.09a14.8,14.8,0,1,1-14.8,14.8,14.79,14.79,0,0,1,14.8-14.8Zm-4.52,3.16a5.6,5.6,0,1,1,0,11.19,5.6,5.6,0,1,1,0-11.19Z"/><path class="cls-6" d="M119.81,157.09a14.8,14.8,0,1,1-14.8,14.8,14.78,14.78,0,0,1,14.8-14.8Zm-4.06,3.16a5.6,5.6,0,1,1-5.65,5.65,5.67,5.67,0,0,1,5.65-5.65Z"/><path class="cls-6" d="M94.05,192.68c13.9,0,25.88,10.85,25.88,25,0,16.95-16.73,28.25-32.54,24.18,0-1.36.11-2.82,0-4.18a21.53,21.53,0,0,0,6.66,1c12.09,0,21.81-9.38,21.81-21s-9.72-21-21.81-21A22,22,0,0,0,75.3,206.8a12.66,12.66,0,0,0-1.81-4.4,26.4,26.4,0,0,1,20.56-9.72Zm154.91,4c-12.09,0-21.92,9.49-21.92,21,0,13.56,12.88,22.82,25.76,20.68a8.24,8.24,0,0,0-.45,4.07c-15,2-29.38-9.16-29.38-24.75,0-14.12,12-25,26-25a26.49,26.49,0,0,1,20.68,9.94,7.58,7.58,0,0,0-2.94,2.72,22.6,22.6,0,0,0-17.74-8.7Z"/><path class="cls-6" d="M172,207.37c-5,0-10,6.55-18,6.55a21.19,21.19,0,0,1-12.88-4.4c-5-4.18-3.62-10.29,0-12C138,205.11,147.61,210,154.05,210c7.34,0,11.64-6.44,18-6.56,6.22.12,10.51,6.56,17.86,6.56,6.44,0,16-4.86,12.88-12.43,3.61,1.69,5.08,7.8,0,12a20.75,20.75,0,0,1-12.88,4.4c-7.57,0-12.21-6.32-17.86-6.55Z"/><path class="cls-6" d="M171.45,185.11c2.26,0,4.07-.11,4.07.9s-1.81,1.81-4.07,1.81-4-.79-4-1.81,1.81-.9,4-.9Z"/><path class="cls-6" d="M42.08,13.26S33.26,53.59,44.9,75.85c0,0-39.32-39.66-40-62.59s37.18,0,37.18,0Z"/><path class="cls-6" d="M334.15,49.3s-2,33.9-29.15,58.08c0,0,53.78-24.07,62.26-45.43S334.15,49.3,334.15,49.3Z"/><path class="cls-6" d="M287.6,195.84l28,31.75c3.39,3.85,5.88,8.48,4.63,13.79s-5.76,8.13-10.5,10.28l-32.54,14.8L287.94,279a10.54,10.54,0,0,0-4.18.23,5.65,5.65,0,0,0-1.36.34,24.48,24.48,0,0,0-5.76.22L265.79,267c-3.72-4.41-4.06-3.39,1.13-5.77L306,243.41c6-2.71,7.34-4.63,2.82-9.83l-34-38.41c-2.82-3.28-2.48-4.18,1.25-5.31l70.39-21c7.68-2.26,7.91-1.69,11.18-9.6,7.23-17.4,9.72-50.73,10.51-67.68.34-8.14-2-10.06-9.26-8.59q-12.56,2.72-25.77,6.78a9.25,9.25,0,0,0,1.7-10.06c7.34-2.14,14.69-4,22.14-5.53,13.68-2.94,20.79,4.29,20.23,17.85-1,20.56-3.39,52-11.19,70.73-4.29,10.51-6.44,11.64-16.94,14.69Zm-32,34.58c2.6,1.47,4.86,2.71,6.67,3.73,4.07,2.26,4.29,3,.34,5.42L255,244.09a9.15,9.15,0,0,0,.22-1.92c.23-1,.34-2,.57-2.94a8,8,0,0,0,.34-2.26c0-2.14.22-4.52-.46-6.55Z"/></g></g></svg>